<?xml version="1.0" encoding="UTF-8"?>
<svg width="780px" height="626px" viewBox="0 0 780 626" version="1.1" xmlns="http://www.w3.org/2000/svg" xmlns:xlink="http://www.w3.org/1999/xlink">
    <title>supported-platforms</title>
    <g id="Page-1" stroke="none" stroke-width="1" fill="none" fill-rule="evenodd">
        <g id="featured-platforms">
            <path d="M0,278 L780,278 L780,614 C780,620.627417 774.627417,626 768,626 L12,626 C5.372583,626 8.11624501e-16,620.627417 0,614 L0,278 L0,278 Z" id="Rectangle" fill="#262626"></path>
            <path d="M12,183 L768,183 C774.627417,183 780,188.372583 780,195 L780,278 L780,278 L0,278 L0,195 C-8.11624501e-16,188.372583 5.372583,183 12,183 Z" id="Rectangle" fill="#323232"></path>
            <rect id="Rectangle" fill="#262626" x="0" y="0" width="780" height="120" rx="12"></rect>
            <g id="Group-4" transform="translate(46.999695, 345.290000)">
                <g id="Group-2" fill-rule="nonzero">
                    <g id="Group" transform="translate(131.000305, 126.710000)" fill="#B1B1B1">
                        <path d="M29.455,1.06 L29.455,25.217 L24.157,25.217 L24.157,1.06 L29.455,1.06 Z M5.404,17.164 L5.404,25.004 L0.106,25.004 L0.106,17.164 L5.404,17.164 Z M13.35,7.84 L13.35,25.005 L8.052,25.005 L8.052,7.84 L13.35,7.84 L13.35,7.84 Z M21.19,13.244 L21.19,25.217 L15.893,25.217 L15.893,13.244 L21.19,13.244 Z M53.718,15.999 C53.188,21.932 49.586,25.852 43.017,25.852 C36.024,25.852 31.362,20.767 31.362,13.244 C31.362,6.251 35.812,0.636 43.122,0.636 C48.95,0.636 53.082,4.238 53.506,9.324 L48.42,9.324 C47.89,6.675 45.877,5.192 43.017,5.192 C38.461,5.192 36.66,9.324 36.66,13.456 C36.66,18.436 39.096,21.614 43.017,21.614 C46.195,21.614 48.102,19.707 48.527,16.211 L53.717,16.211 L53.717,15.999 L53.718,15.999 Z M58.698,25.005 L58.698,0.848 L66.114,0.848 L71.73,17.376 L77.24,0.848 L84.55,0.848 L84.55,25.005 L79.57,25.005 L79.57,7.84 L73.637,24.899 L69.611,24.899 L63.677,8.052 L63.677,24.9 L58.697,24.9 L58.697,25.006 L58.698,25.005 Z M102.88,25.111 L102.88,12.821 C102.88,7.946 98.96,7.099 95.463,7.099 L95.357,7.099 C90.271,7.099 87.623,9.112 87.305,13.032 L91.755,13.032 C92.073,11.019 92.92,10.383 95.145,10.383 C97.265,10.383 98.324,11.125 98.324,12.714 C98.324,14.092 97.264,14.41 94.192,14.834 L93.45,14.939 C90.165,15.363 86.563,16.105 86.563,20.449 C86.563,23.733 88.894,25.746 92.814,25.746 C94.934,25.746 96.946,25.111 98.43,23.521 L98.43,25.217 L102.88,25.217 L102.88,25.111 L102.88,25.111 Z M98.218,16.635 L98.218,18.648 C98.218,21.19 96.417,22.462 93.98,22.462 C92.285,22.462 91.331,21.614 91.331,20.131 C91.331,18.011 93.238,17.8 94.827,17.482 C96.099,17.27 97.158,17.27 98.217,16.635 L98.218,16.635 Z M109.237,25.111 L109.237,14.198 C109.237,13.138 110.085,12.078 111.356,12.078 L115.7,12.078 L115.7,7.417 L111.25,7.417 C107.542,7.417 104.575,10.489 104.575,14.197 L104.575,25.005 C104.575,25.111 109.237,25.111 109.237,25.111 L109.237,25.111 Z M155.644,0.954 L155.644,7.417 L160.942,7.417 L160.942,12.079 L155.644,12.079 L155.644,18.224 C155.644,19.284 156.492,20.343 157.764,20.343 L161.048,20.343 L161.048,25.005 L157.763,25.005 C154.055,25.005 151.088,21.932 151.088,18.224 L151.088,0.954 L155.644,0.954 L155.644,0.954 Z M133.182,7.523 L126.613,13.986 L133.923,24.899 L128.203,24.899 L123.329,17.164 L121.315,19.071 L121.315,25.005 L116.654,25.005 L116.654,0.848 L121.315,0.848 L121.315,13.774 L127.461,7.523 L133.182,7.523 L133.182,7.523 Z" id="Shape"></path>
                        <path d="M149.287,19.601 L144.731,19.601 C144.095,21.402 142.93,22.144 141.235,22.144 C138.692,22.144 137.208,20.449 137.208,17.588 L149.711,17.588 L149.711,17.164 C149.711,11.019 146.426,7.204 141.129,7.204 C136.043,7.204 132.335,11.125 132.335,16.529 C132.335,22.039 135.831,25.64 141.235,25.64 C145.155,25.535 148.227,23.31 149.287,19.601 L149.287,19.601 Z M144.731,14.41 L137.208,14.41 C137.42,11.973 139.01,10.49 141.023,10.49 C143.46,10.49 144.625,12.396 144.731,14.41 Z M177.364,12.608 L172.914,12.608 C172.702,10.701 171.537,10.171 169.63,10.171 C167.935,10.171 166.875,10.807 166.875,11.973 C166.875,13.138 167.935,13.456 170.054,13.986 L171.749,14.304 C174.715,14.939 178,15.787 178,19.601 C178,23.204 175.033,25.535 170.16,25.535 C165.815,25.535 162.001,23.733 162.001,19.389 L166.451,19.389 C166.663,21.509 167.935,22.356 170.16,22.356 C172.173,22.356 173.338,21.508 173.338,20.131 C173.338,18.754 172.067,18.33 169.63,17.8 L169.206,17.694 C166.133,17.058 162.319,16.529 162.319,12.396 C162.319,9.006 165.074,6.993 169.842,6.993 C173.868,7.099 177.258,8.583 177.364,12.608 L177.364,12.608 Z" id="Shape"></path>
                    </g>
                    <path d="M59.7673052,13.493 L63.3113052,13.493 L63.3113052,15.333 C63.8813052,14.633 64.6123052,14.08 65.4413052,13.723 C66.3599034,13.3282677 67.3516102,13.1323119 68.3513052,13.148 C69.7696636,13.1254284 71.1661315,13.4994823 72.3833052,14.228 C73.5677112,14.9399478 74.5416205,15.9538903 75.2053052,17.166 C76.5882534,19.7683446 76.5882534,22.8876554 75.2053052,25.49 C74.5407262,26.7014531 73.5670192,27.715185 72.3833052,28.428 C71.15649,29.1579613 69.7506617,29.5319255 68.3233052,29.508 C67.4082929,29.5166591 66.4996048,29.3556043 65.6433052,29.033 C64.8492256,28.7340698 64.1313233,28.2627543 63.5413052,27.653 L63.5413052,34.925 L59.7673052,34.925 L59.7673052,13.493 L59.7673052,13.493 Z M70.1803052,25.453 C70.8478288,25.0454107 71.3908409,24.4626238 71.7503052,23.768 C72.1423052,23.017 72.3403052,22.18 72.3263052,21.334 C72.3411175,20.4918231 72.1433559,19.6595049 71.7513052,18.914 C71.3851146,18.2243502 70.8431448,17.6437422 70.1803052,17.231 C69.1658592,16.5984584 67.9335999,16.4175731 66.7801633,16.7318879 C65.6267268,17.0462027 64.6565957,17.8272456 64.1033052,18.887 C63.3548953,20.4335486 63.3548953,22.2374514 64.1033052,23.784 C64.8294911,25.2018922 66.2984771,26.0837492 67.8913052,26.058 C68.6963218,26.0715138 69.4891097,25.8598959 70.1803052,25.447 L70.1803052,25.454 L70.1803052,25.453 Z M81.3583052,28.421 C80.1647773,27.7077181 79.1889404,26.6817407 78.5363052,25.454 C77.8589909,24.1801575 77.5123925,22.7566282 77.5283052,21.314 C77.4998352,19.8514544 77.8527504,18.4067075 78.5523052,17.122 C79.2099052,15.9257893 80.1734171,14.9256971 81.3443052,14.224 C82.541227,13.5106695 83.9120441,13.1420959 85.3053052,13.159 C86.9383052,13.159 88.3183052,13.509 89.4453052,14.21 C90.5509655,14.8774986 91.4507281,15.8374761 92.0453052,16.984 C92.6453052,18.169 92.9503052,19.482 92.9323052,20.81 C92.9323052,21.098 92.9193052,21.38 92.8923052,21.658 C92.8673052,21.909 92.8143052,22.156 92.7323052,22.394 L81.4463052,22.394 C81.5964482,24.2186139 82.9111946,25.7357632 84.6959087,26.1438743 C86.4806228,26.5519853 88.3240803,25.7570233 89.2523052,24.179 L92.3053052,25.677 C91.7799259,26.8446098 90.89291,27.8122635 89.7753052,28.437 C87.1515879,29.8834811 83.9682013,29.8781919 81.3493052,28.423 L81.3593052,28.421 L81.3583052,28.421 Z M82.8723052,17.116 C82.1592898,17.7345801 81.6855172,18.5834079 81.5333052,19.515 L88.8933052,19.515 C88.8467013,18.6174715 88.4486744,17.7743585 87.7853052,17.168 C87.1031797,16.5553497 86.2106768,16.2300215 85.2943052,16.26 C84.4112485,16.2431849 83.551598,16.544524 82.8723052,17.109 L82.8723052,17.116 Z M94.5423052,13.493 L98.0853052,13.493 L98.0853052,15.333 C98.6557025,14.6322185 99.3871765,14.079839 100.217305,13.723 C101.135912,13.3282967 102.127613,13.1323421 103.127305,13.148 C104.545604,13.1259066 105.941944,13.499926 107.159305,14.228 C108.34341,14.9403256 109.317231,15.9541762 109.981305,17.166 C111.36443,19.7683005 111.36443,22.8876995 109.981305,25.49 C109.316494,26.7012825 108.342839,27.7149597 107.159305,28.428 C105.931662,29.1577321 104.525261,29.5316643 103.097305,29.508 C102.182962,29.5164348 101.274971,29.3553832 100.419305,29.033 C99.6252407,28.7340401 98.9073446,28.2627286 98.3173052,27.653 L98.3173052,34.925 L94.5433052,34.925 L94.5433052,13.493 L94.5423052,13.493 Z M104.955305,25.453 C105.622722,25.0455888 106.165452,24.4627326 106.524305,23.768 C106.916305,23.018 107.114305,22.181 107.101305,21.334 C107.115891,20.4916081 106.917417,19.6591847 106.524305,18.914 C106.15894,18.2244049 105.617623,17.6437567 104.955305,17.231 C103.406415,16.262908 101.414228,16.3825275 99.9923052,17.529 C99.5313052,17.9 99.1523052,18.362 98.8783052,18.887 C98.1298953,20.4335486 98.1298953,22.2374514 98.8783052,23.784 C99.6050701,25.2003975 101.072513,26.0817934 102.664305,26.058 C103.467305,26.071 104.259305,25.858 104.948305,25.447 L104.955305,25.454 L104.955305,25.453 Z M112.835305,13.493 L116.378305,13.493 L116.378305,15.333 C116.94873,14.6322472 117.680197,14.0798735 118.510305,13.723 C119.428876,13.3281807 120.420602,13.1322212 121.420305,13.148 C122.838624,13.1257473 124.235006,13.4997782 125.452305,14.228 C126.636079,14.9407398 127.609804,15.9544899 128.274305,17.166 C129.657253,19.7683446 129.657253,22.8876554 128.274305,25.49 C127.609339,26.7011688 126.63572,27.7148098 125.452305,28.428 C124.224765,29.1579771 122.818293,29.5319282 121.390305,29.508 C120.476288,29.5164266 119.568626,29.3553734 118.713305,29.033 C117.918852,28.7342304 117.200591,28.2629032 116.610305,27.653 L116.610305,34.925 L112.828305,34.925 L112.835305,13.493 L112.835305,13.493 Z M123.248305,25.453 C123.915722,25.0455888 124.458452,24.4627326 124.817305,23.768 C125.209111,23.0172944 125.407433,22.1806985 125.394305,21.334 C125.408415,20.49166 125.209969,19.6593531 124.817305,18.914 C124.45194,18.2244049 123.910623,17.6437567 123.248305,17.231 C122.234014,16.5984927 121.0019,16.417627 119.848621,16.7319505 C118.695342,17.046274 117.725391,17.8273078 117.172305,18.887 C116.422264,20.4331743 116.422264,22.2378257 117.172305,23.784 C117.89729,25.2015846 119.365295,26.0835511 120.957305,26.058 C121.761305,26.071 122.552305,25.858 123.242305,25.447 L123.248305,25.454 L123.248305,25.453 Z M134.443305,28.421 C133.248865,27.7079055 132.272011,26.6819498 131.618305,25.454 C130.941016,24.1801891 130.594742,22.7565812 130.611305,21.314 C130.58242,19.8514085 130.93536,18.4065566 131.635305,17.122 C132.291013,15.9267034 133.252019,14.9267054 134.420305,14.224 C135.617268,13.5107661 136.988057,13.1421999 138.381305,13.159 C140.014305,13.159 141.394305,13.509 142.521305,14.21 C143.627494,14.8768452 144.527414,15.8369908 145.121305,16.984 C145.724846,18.170228 146.031618,19.485161 146.015305,20.816 C146.015305,21.104 145.999305,21.386 145.971305,21.666 C145.947305,21.916 145.894305,22.163 145.813305,22.401 L134.521305,22.401 C134.670846,24.226261 135.985839,25.7441986 137.771145,26.1523927 C139.556451,26.5605868 141.400429,25.7649193 142.328305,24.186 L145.380305,25.684 C144.855286,26.851847 143.968178,27.8196018 142.850305,28.444 C140.227761,29.8909 137.045025,29.88561 134.427305,28.43 L134.443305,28.42 L134.443305,28.421 Z M135.955305,17.116 C135.242107,17.7362495 134.768113,18.5862566 134.615305,19.519 L141.976305,19.519 C141.92923,18.6218774 141.531261,17.7792461 140.868305,17.173 C140.186081,16.5597442 139.293155,16.234034 138.376305,16.264 C137.490708,16.2440696 136.627611,16.5440768 135.945305,17.109 L135.955305,17.116 L135.955305,17.116 Z M147.605305,13.5 L151.147305,13.5 L151.147305,15.717 C151.467305,14.907 152.070305,14.241 152.847305,13.845 C153.641677,13.486503 154.50596,13.3095471 155.377305,13.327 L156.297305,13.327 L156.297305,16.662 L154.942305,16.662 C153.982821,16.624579 153.050307,16.9841288 152.364305,17.656 C151.701305,18.318 151.370305,19.245 151.370305,20.435 L151.370305,29.161 L147.598305,29.161 L147.605305,13.5 L147.605305,13.5 Z M158.902305,28.306 C157.70931,27.5563485 156.810112,26.4195538 156.355305,25.086 L159.177305,23.733 C159.554305,24.559 160.139305,25.273 160.877305,25.803 C161.574948,26.2987795 162.411482,26.5612901 163.267305,26.553 C163.843124,26.5798336 164.41266,26.4237101 164.894305,26.107 C165.294987,25.8303827 165.528345,25.3696885 165.514305,24.883 C165.526,24.4647205 165.325949,24.068754 164.982305,23.83 C164.594307,23.5565469 164.159447,23.3565722 163.699305,23.24 L161.129305,22.505 C159.805305,22.121 158.801305,21.535 158.119305,20.747 C157.44413,19.9745192 157.079916,18.9788097 157.097305,17.953 C157.075646,17.0542088 157.331984,16.170645 157.831305,15.423 C158.344898,14.6936655 159.049275,14.1197158 159.867305,13.764 C162.120862,12.813531 164.691943,12.9902069 166.794305,14.24 C167.910644,14.9402538 168.762081,15.9922358 169.214305,17.23 L166.332305,18.583 C166.090694,17.8817059 165.61919,17.2826351 164.994305,16.883 C164.357501,16.4641237 163.610493,16.2441289 162.848305,16.251 C162.314289,16.2196962 161.785649,16.3721478 161.350305,16.683 C160.997077,16.9468342 160.793281,17.3652299 160.803305,17.806 C160.788538,18.2169941 160.983194,18.6074358 161.320305,18.843 C161.725305,19.118 162.173305,19.323 162.645305,19.448 L165.152305,20.195 C166.459305,20.562 167.456305,21.138 168.142305,21.925 C168.830586,22.701768 169.200857,23.7093901 169.179305,24.747 C169.195312,25.635096 168.933446,26.5060025 168.430305,27.238 C167.90654,27.9778545 167.190841,28.5607861 166.360305,28.924 C165.37841,29.3466601 164.317036,29.5530004 163.248305,29.529 C161.707841,29.5565991 160.193525,29.1287082 158.895305,28.299 L158.902305,28.306 L158.902305,28.306 Z M174.185305,27.873 C173.215305,26.893 172.731305,25.53 172.731305,23.783 L172.731305,16.663 L170.024305,16.663 L170.024305,13.493 L170.312305,13.493 C171.080305,13.493 171.676305,13.293 172.098305,12.888 C172.522305,12.483 172.731305,11.898 172.731305,11.131 L172.731305,8.81 L176.506305,8.81 L176.506305,13.493 L180.108305,13.493 L180.108305,16.663 L176.508305,16.663 L176.508305,23.563 C176.508305,24.349 176.717305,24.954 177.140305,25.378 C177.564305,25.801 178.235305,26.01 179.158305,26.01 C179.495305,26.008 179.832305,25.98 180.165305,25.925 L180.165305,29.145 C179.897305,29.185 179.588305,29.223 179.245305,29.26 C178.929983,29.2974542 178.612834,29.3174846 178.295305,29.3201518 C176.521305,29.33 175.148305,28.846 174.178305,27.866 L174.185305,27.873 L174.185305,27.873 Z M184.827305,28.448 C182.261034,27.0008809 180.672654,24.2841667 180.6703,21.338 C180.666916,18.3918941 182.249938,15.6721371 184.813305,14.22 C187.426895,12.8000487 190.581715,12.8000487 193.195305,14.22 C194.429433,14.9120094 195.460682,15.9153312 196.186305,17.13 C197.668628,19.744053 197.663308,22.9458878 196.172305,25.555 C195.446996,26.76957 194.416094,27.7728885 193.182305,28.465 C190.578438,29.8719827 187.439416,29.8655849 184.841305,28.448 L184.827305,28.448 L184.827305,28.448 Z M191.251305,25.458 C191.904608,25.0455593 192.432931,24.4626062 192.779305,23.772 C193.160405,23.0183361 193.352914,22.1834449 193.340305,21.339 C193.354414,20.498669 193.162126,19.667711 192.780305,18.919 C192.427085,18.2333293 191.899791,17.6525819 191.251305,17.235 C190.584479,16.8150761 189.809171,16.5998671 189.021305,16.616 C188.222959,16.6025672 187.437418,16.817689 186.757305,17.236 C186.096991,17.646877 185.559776,18.2283124 185.202305,18.919 C184.819515,19.6673573 184.62717,20.4985608 184.642305,21.339 C184.627305,22.183 184.820305,23.019 185.202305,23.772 C185.552305,24.468 186.092305,25.052 186.757305,25.458 C187.441032,25.8662668 188.225063,26.0757804 189.021305,26.063 C189.80619,26.0737754 190.577812,25.8600528 191.245305,25.447 L191.251305,25.458 L191.251305,25.458 Z M199.091305,13.498 L202.635305,13.498 L202.635305,15.428 C203.04557,14.6899281 203.673421,14.0962982 204.433305,13.728 C205.255677,13.3339094 206.158511,13.1367034 207.070305,13.152 C208.140665,13.1320937 209.197845,13.3905307 210.138305,13.902 C211.016728,14.3873436 211.7407,15.1102754 212.227305,15.988 C212.740305,16.939 212.997305,18.007 212.974305,19.087 L212.974305,29.166 L209.202305,29.166 L209.202305,19.975 C209.202305,18.938 208.909305,18.117 208.324305,17.511 C207.719588,16.8983469 206.884396,16.5693537 206.024305,16.605 C205.160922,16.5678484 204.323079,16.9028399 203.723305,17.525 C203.136305,18.141 202.844305,18.955 202.844305,19.975 L202.844305,29.161 L199.084305,29.161 L199.091305,13.497 L199.091305,13.498 Z M218.428305,28.418 C217.233656,27.7054852 216.256987,26.6793608 215.604305,25.451 C214.927152,24.1770963 214.580564,22.7536086 214.596305,21.311 C214.56823,19.8491342 214.921131,18.4051324 215.620305,17.121 C216.276117,15.9260417 217.237119,14.9263924 218.405305,14.224 C219.601896,13.510751 220.97237,13.1421766 222.365305,13.159 C223.999305,13.159 225.379305,13.509 226.505305,14.21 C227.609393,14.878194 228.507692,15.8380874 229.101305,16.984 C229.705337,18.1700488 230.012138,19.4851045 229.995305,20.816 C229.995305,21.104 229.979305,21.386 229.952305,21.666 C229.928305,21.916 229.875305,22.163 229.792305,22.401 L218.502305,22.401 C218.575305,23.291 218.929305,24.134 219.512305,24.808 C220.398593,25.8299533 221.722675,26.36273 223.069781,26.2394369 C224.416886,26.1161438 225.622256,25.3518605 226.308305,24.186 L229.360305,25.684 C228.834926,26.8516098 227.94791,27.8192635 226.830305,28.444 C224.207663,29.8905183 221.025124,29.8852285 218.407305,28.43 L218.427305,28.418 L218.428305,28.418 Z M219.939305,17.113 C219.226581,17.73376 218.753281,18.5841427 218.601305,19.517 L225.961305,19.517 C225.914502,18.6195968 225.516073,17.7767519 224.852305,17.171 C224.17064,16.5581397 223.278488,16.2324505 222.362305,16.262 C221.476768,16.2426916 220.613976,16.5434258 219.932305,17.109 L219.939305,17.113 L219.939305,17.113 Z M43.4813052,9.15 C35.3663052,4.485 18.4683052,0.82 9.52130521,0.582 C0.573305208,0.344 -0.425694792,3.532 0.121305208,10.79 C0.671305208,18.05 2.76330521,29.376 7.38130521,36.61 C11.9973052,43.845 19.1373052,46.987 26.7053052,44.394 C34.2723052,41.799 42.2703052,33.469 46.6003052,26.472 C50.9303052,19.48 51.5973052,13.814 43.4813052,9.15 Z" id="Shape" fill="#B1B1B1"></path>
                    <path d="M27.5943052,29.082 L21.9033052,29.082 L21.9033052,38.547 L16.1083052,38.547 L16.1083052,17.49 L21.9033052,17.49 L21.9033052,23.285 L27.5933052,23.285 L27.5933052,23.269 C29.9774895,23.2180676 31.8836729,21.2707282 31.8836729,18.886 C31.8836729,16.5012718 29.9774895,14.5539324 27.5933052,14.503 L27.5933052,14.498 L8.86330521,14.498 L10.9813052,8.704 L27.5903052,8.704 C33.2283052,8.704 37.8003067,13.276 37.8003067,18.914 C37.8033052,24.554 33.2303052,29.082 27.5933052,29.082 L27.5943052,29.082 Z" id="Path" fill="#FFFFFF"></path>
                    <path d="M679.215305,10.856 L674.241305,19.472 L669.267305,10.856 L662.462305,10.856 L671.224305,24.279 L671.224305,34.165 L676.843305,34.165 L676.843305,24.279 L685.813305,10.856 L679.215305,10.856 L679.215305,10.856 Z M639.028305,20.824 L636.364305,20.824 L636.364305,15.393 L639.361305,15.393 C641.047305,15.393 643.107305,15.809 643.107305,17.994 C643.107305,20.367 640.839305,20.824 639.028305,20.824 M648.664305,17.89 C648.664305,12.562 644.210305,10.856 639.736305,10.856 L630.849305,10.856 L630.849305,34.165 L636.385305,34.165 L636.385305,24.904 L638.300305,24.904 L643.336305,34.164 L649.933305,34.164 L643.836305,24.196 C646.832305,23.259 648.685305,21.033 648.664305,17.89 M600.734305,29.15 C597.030305,29.15 594.470305,26.298 594.470305,22.323 C594.470305,18.473 597.010305,15.622 600.735305,15.622 C604.460305,15.622 607.041305,18.472 607.041305,22.322 C607.041305,26.277 604.418305,29.149 600.735305,29.149 M600.735305,10.835 C593.867305,10.835 588.768305,15.268 588.768305,22.323 C588.768305,29.274 593.867305,33.998 600.735305,33.998 C607.623305,33.998 612.722305,29.274 612.722305,22.323 C612.722305,15.268 607.623305,10.835 600.735305,10.835 M565.209305,10.855 L570.537305,10.855 L570.537305,34.165 L565.209305,34.165 L565.209305,10.855 Z M530.412305,10.855 L522.691305,10.855 L529.371305,19.867 L533.263305,14.685 L530.413305,10.855 L530.412305,10.855 Z M540.527305,10.855 L523.190305,34.144 L530.974305,34.144 L548.248305,10.856 L540.527305,10.856 L540.527305,10.855 Z M540.880305,34.165 L548.706305,34.165 L542.025305,25.112 L538.112305,30.439 L540.880305,34.165 Z M495.573305,25.07 L498.549305,17.058 L501.421305,25.07 L495.573305,25.07 Z M495.906305,10.856 L486.125305,34.165 L492.243305,34.165 L493.950305,29.586 L502.961305,29.586 L504.772305,34.165 L511.036305,34.165 L501.359305,10.855 L495.906305,10.855 L495.906305,10.856 Z M333.010305,5.32907052e-14 L309.667305,5.32907052e-14 L309.667305,1.1 C312.357305,1.223 313.210305,1.59 313.210305,4.4 L313.210305,23.343 C313.210305,26.277 312.350305,26.52 309.667305,26.643 L309.667305,27.62 L322.743305,27.62 L322.743305,26.643 C319.443305,26.52 318.710305,26.153 318.710305,23.343 L318.710305,14.3 L323.474305,14.3 C327.017305,14.3 328.730305,15.16 329.341305,18.333 L330.441305,18.333 L330.441305,8.553 L329.341305,8.553 C328.851305,11.487 327.874305,12.22 323.474305,12.22 L318.710305,12.22 L318.710305,3.42 C318.710305,2.32 318.954305,2.077 320.300305,2.077 L324.457305,2.077 C329.957305,2.077 330.933305,3.053 331.904305,6.11 L333.004305,6.11 L333.010305,5.32907052e-14 L333.010305,5.32907052e-14 Z M350.733305,24.81 L345.357305,16.867 L348.290305,13.2 C350.246305,10.877 351.346305,9.656 353.057305,9.533 L353.057305,8.433 L345.477305,8.433 L345.477305,9.533 C346.820305,9.533 347.433305,9.9 347.433305,10.756 C347.433305,11.49 346.574305,12.476 345.843305,13.2 L344.125305,15.156 L342.168305,12.223 C341.678305,11.613 341.308305,11.123 341.308305,10.504 C341.308305,9.886 342.042305,9.527 343.265305,9.527 L343.265305,8.427 L333.133305,8.427 L333.133305,9.527 C334.600305,9.894 335.210305,10.751 335.943305,11.851 L340.948305,19.187 L336.791305,24.077 C335.325305,25.795 334.591305,26.4 332.881305,26.655 L332.881305,27.632 L340.329305,27.632 L340.329305,26.655 C339.352305,26.655 338.252305,26.411 338.252305,25.795 C338.252305,25.18 338.986305,24.329 340.209305,22.862 L341.928305,20.785 L344.004305,23.842 C344.738305,24.942 345.104305,25.432 345.104305,25.798 C345.104305,26.288 344.371305,26.532 343.028305,26.532 L343.028305,27.508 L353.418305,27.508 L353.418305,26.532 C352.567305,26.767 351.833305,26.52 350.733305,24.81 L350.733305,24.81 Z M368.210305,2.48689958e-14 L355.133305,2.48689958e-14 L355.133305,1.1 C357.943305,1.223 358.677305,1.59 358.677305,4.4 L358.677305,23.343 C358.677305,26.277 357.943305,26.52 355.133305,26.643 L355.133305,27.62 L367.967305,27.62 L367.967305,26.643 C365.033305,26.52 364.300305,26.153 364.300305,23.343 L364.300305,16.133 L367.967305,16.133 C375.057305,16.133 378.852305,13.323 378.852305,8.067 C378.723305,3.543 375.790305,2.48689958e-14 368.210305,2.48689958e-14 L368.210305,2.48689958e-14 Z M364.177305,14.543 L364.177305,3.177 C364.177305,2.2 364.543305,1.587 366.500305,1.587 C370.167305,1.587 372.977305,3.664 372.977305,7.453 C372.977305,11.853 370.657305,14.543 364.177305,14.543 L364.177305,14.543 Z M391.800305,8.067 C389.477305,8.067 388.010305,9.9 387.277305,11.61 L387.154305,11.61 L387.154305,8.677 C387.154305,8.31 387.154305,8.067 386.910305,8.067 C386.543305,8.067 382.020305,9.29 379.943305,9.657 L379.943305,10.757 C381.777305,10.757 382.267305,11.123 382.267305,13.2 L382.267305,24.323 C382.267305,26.042 381.533305,26.4 379.943305,26.646 L379.943305,27.623 L390.087305,27.623 L390.087305,26.646 C388.254305,26.646 387.154305,26.156 387.154305,24.068 L387.154305,13.32 C387.764305,12.343 388.497305,11.73 389.230305,11.73 C389.622305,11.757 390.000305,11.884 390.330305,12.097 C390.697305,12.34 391.190305,12.957 392.287305,12.957 C392.871515,12.9594047 393.432492,12.728392 393.845595,12.3152895 C394.258697,11.9021871 394.48971,11.3412102 394.487305,10.757 C394.610305,9.533 393.757305,8.067 391.800305,8.067 L391.800305,8.067 Z M403.533305,8.067 C398.033305,8.067 394.243305,12.343 394.243305,18.21 C394.243305,24.077 398.033305,28.353 403.533305,28.353 C409.033305,28.353 412.823305,24.077 412.823305,18.21 C412.823305,12.343 409.033305,8.067 403.533305,8.067 Z M403.533305,26.643 C400.600305,26.643 399.500305,24.065 399.500305,18.21 C399.500305,12.355 400.723305,9.777 403.533305,9.777 C406.467305,9.777 407.567305,12.355 407.567305,18.21 C407.693305,24.077 406.467305,26.643 403.533305,26.643 Z M309.750305,37.173 L317.043305,37.173 L317.043305,38.348 L314.021305,38.348 L314.021305,46.512 L312.749305,46.512 L312.749305,38.354 L309.749305,38.354 L309.749305,37.174 L309.750305,37.173 Z M320.016305,39.826 C320.476305,39.555 321.003305,39.414 321.538305,39.419 L321.538305,40.611 C320.91269,40.5445951 320.287587,40.7409221 319.812279,41.1530955 C319.336972,41.5652688 319.054132,42.1562846 319.031305,42.785 L319.031305,46.509 L317.791305,46.509 L317.791305,39.465 L319.031305,39.465 L319.031305,40.986 C319.234305,40.508 319.578305,40.104 320.016305,39.826 L320.016305,39.826 Z M326.883305,46.512 L326.883305,45.524 C326.358305,46.217 325.536305,46.564 324.416305,46.564 C323.970997,46.5711513 323.530319,46.472804 323.130305,46.277 C322.775528,46.1070077 322.477031,45.8387074 322.270305,45.504 C322.073616,45.1692515 321.974546,44.7861338 321.984305,44.398 C321.961619,43.813996 322.222322,43.2549758 322.684305,42.897 C323.253997,42.4952201 323.940844,42.2937028 324.637305,42.324 L326.877305,42.324 L326.877305,41.992 C326.901044,41.5605615 326.732194,41.1408171 326.416305,40.846 C326.034782,40.5503672 325.557798,40.4054922 325.076305,40.439 C324.290557,40.4634822 323.531303,40.728785 322.901305,41.199 L322.383305,40.339 C322.820305,40.044 323.293305,39.805 323.789305,39.626 C324.287572,39.4692751 324.808088,39.394964 325.330305,39.406 C326.210305,39.406 326.890305,39.621 327.370305,40.052 C327.865305,40.519 328.133305,41.178 328.103305,41.857 L328.103305,46.497 L326.883305,46.512 L326.883305,46.512 Z M326.143305,45.12 C326.531305,44.866 326.795305,44.462 326.871305,44.006 L326.871305,43.298 L324.806305,43.298 C324.376305,43.269 323.946305,43.356 323.560305,43.55 C323.285202,43.7191054 323.128016,44.02807 323.153305,44.35 C323.143305,44.686 323.296305,45.006 323.566305,45.209 C323.888305,45.437 324.277305,45.549 324.671305,45.529 C325.19284,45.547522 325.707342,45.4043137 326.144305,45.119 L326.143305,45.12 Z M336.897305,36.62 L336.897305,46.512 L335.657305,46.512 L335.657305,45.112 C335.407305,45.566 335.035305,45.942 334.583305,46.197 C334.103305,46.459 333.563305,46.59 333.016305,46.578 C332.39574,46.5902811 331.783863,46.4307362 331.248305,46.117 C330.737404,45.8116631 330.323428,45.3678705 330.054305,44.837 C329.762159,44.2561851 329.615616,43.6130454 329.627305,42.963 C329.614858,42.3211913 329.761559,41.6862906 330.054305,41.115 C330.326305,40.591 330.740305,40.155 331.248305,39.855 C331.780861,39.5472145 332.387311,39.3905887 333.002305,39.402 C333.554385,39.3896587 334.100525,39.5180204 334.589305,39.775 C335.041305,40.024 335.411305,40.399 335.654305,40.855 L335.654305,36.615 L336.897305,36.621 L336.897305,36.62 Z M334.503305,45.194 C334.867305,44.983 335.165305,44.674 335.362305,44.301 C335.771334,43.4822423 335.771334,42.5187577 335.362305,41.7 C335.16525,41.3271743 334.867214,41.017356 334.502305,40.806 C334.12798,40.5883773 333.701227,40.4773663 333.268305,40.485 C332.834296,40.4774948 332.406733,40.5907037 332.033305,40.812 C331.669604,41.0267899 331.372331,41.3379061 331.174305,41.711 C330.768537,42.5224335 330.768537,43.4775665 331.174305,44.289 C331.371305,44.662 331.669305,44.972 332.034305,45.183 C332.800305,45.609 333.733305,45.609 334.500305,45.183 L334.503305,45.194 L334.503305,45.194 Z M344.698305,40.388 C345.258305,41.033 345.537305,41.928 345.537305,43.075 L345.537305,43.475 L339.951305,43.475 C340.022305,44.058 340.305305,44.595 340.745305,44.982 C341.186224,45.364376 341.753838,45.5686744 342.337305,45.555 C342.737305,45.558 343.133305,45.481 343.503305,45.329 C343.857305,45.181 344.176305,44.963 344.443305,44.687 L345.124305,45.395 C344.774305,45.768 344.347305,46.061 343.873305,46.255 C343.356305,46.464 342.803305,46.568 342.246305,46.561 C341.602104,46.5734977 340.96558,46.4195332 340.398305,46.114 C339.868192,45.82353 339.433393,45.3859522 339.146305,44.854 C338.549819,43.6920817 338.549819,42.3139183 339.146305,41.152 C339.436305,40.623 339.867305,40.185 340.392305,39.886 C340.950126,39.5736373 341.581103,39.4155479 342.220305,39.428 C343.310305,39.422 344.136305,39.742 344.698305,40.388 L344.698305,40.388 Z M344.411305,42.513 C344.419144,41.9409382 344.186989,41.3917505 343.771201,40.9987663 C343.355413,40.6057821 342.794016,40.4049402 342.223305,40.445 C341.65133,40.4298831 341.095392,40.6350038 340.670305,41.018 C340.247305,41.412 339.984305,41.948 339.931305,42.525 L344.411305,42.513 L344.411305,42.513 Z M350.845305,37.173 L352.120305,37.173 L352.120305,45.346 L356.199305,45.346 L356.199305,46.506 L350.845305,46.506 L350.845305,37.174 L350.845305,37.173 Z M358.877305,36.873 C359.1689,37.1993538 359.1689,37.6926462 358.877305,38.019 C358.570678,38.3205187 358.078933,38.3205187 357.772305,38.019 C357.480711,37.6926462 357.480711,37.1993538 357.772305,36.873 C358.078933,36.5714813 358.570678,36.5714813 358.877305,36.873 L358.877305,36.873 Z M357.711305,39.451 L358.951305,39.451 L358.951305,46.512 L357.711305,46.512 L357.711305,39.451 Z M366.297305,46.512 L364.042305,43.075 L362.670305,44.507 L362.670305,46.512 L361.430305,46.512 L361.430305,36.621 L362.670305,36.621 L362.670305,42.923 L366.085305,39.465 L367.537305,39.465 L364.907305,42.198 L367.789305,46.518 L366.297305,46.512 L366.297305,46.512 Z M374.111305,40.388 C374.671305,41.033 374.951305,41.928 374.951305,43.075 L374.951305,43.475 L369.365305,43.475 C369.436547,44.0573772 369.718653,44.5934844 370.158305,44.982 C370.599481,45.3646106 371.167496,45.5689249 371.751305,45.555 C372.151305,45.558 372.547305,45.481 372.917305,45.329 C373.270305,45.181 373.590305,44.963 373.857305,44.687 L374.535305,45.395 C374.185305,45.768 373.757305,46.061 373.283305,46.255 C372.767305,46.464 372.213305,46.568 371.656305,46.561 C371.012427,46.5734608 370.376234,46.4194933 369.809305,46.114 C369.278984,45.8238067 368.844115,45.3861586 368.557305,44.854 C367.961975,43.6918027 367.961975,42.3141973 368.557305,41.152 C368.847305,40.623 369.278305,40.185 369.803305,39.886 C370.360832,39.5738098 370.99144,39.4157262 371.630305,39.428 C372.725305,39.422 373.552305,39.742 374.111305,40.388 L374.111305,40.388 Z M373.825305,42.513 C373.8331,41.9413111 373.601214,41.3924646 373.185877,40.9995473 C372.77054,40.60663 372.209683,40.405526 371.639305,40.445 C371.067279,40.4295741 370.51123,40.6347358 370.086305,41.018 C369.663305,41.412 369.400305,41.948 369.347305,42.525 L373.825305,42.513 L373.825305,42.513 Z M384.447305,46.513 L384.447305,45.523 C383.923305,46.217 383.101305,46.563 381.980305,46.563 C381.535078,46.5704623 381.094404,46.4724586 380.694305,46.277 C380.339622,46.1068664 380.041161,45.8385984 379.834305,45.504 C379.638161,45.1690266 379.539131,44.7860666 379.548305,44.398 C379.525619,43.813996 379.786322,43.2549758 380.248305,42.897 C380.817997,42.4952201 381.504844,42.2937028 382.201305,42.324 L384.441305,42.324 L384.441305,41.992 C384.465044,41.5605615 384.296194,41.1408171 383.980305,40.846 C383.598914,40.5501129 383.121831,40.4052078 382.640305,40.439 C381.854522,40.4632895 381.095211,40.728612 380.465305,41.199 L379.943305,40.339 C380.381305,40.044 380.853305,39.805 381.350305,39.626 C381.848548,39.4691699 382.369081,39.3948563 382.891305,39.406 C383.771305,39.406 384.451305,39.621 384.931305,40.052 C385.425305,40.519 385.693305,41.178 385.664305,41.857 L385.664305,46.497 L384.447305,46.512 L384.447305,46.513 Z M383.707305,45.12 C384.095305,44.866 384.359305,44.462 384.435305,44.006 L384.435305,43.298 L382.367305,43.298 C381.937305,43.269 381.507305,43.356 381.121305,43.55 C380.846202,43.7191054 380.689016,44.02807 380.714305,44.35 C380.704305,44.686 380.857305,45.006 381.127305,45.209 C381.450305,45.437 381.840305,45.55 382.235305,45.529 C382.755826,45.5468991 383.269187,45.4037167 383.705305,45.119 L383.708305,45.119 L383.707305,45.12 Z M397.801305,38.007 C398.454013,38.5961114 398.804786,39.4491435 398.755305,40.327 C398.755305,41.368 398.435305,42.175 397.795305,42.748 C397.155305,43.321 396.258305,43.608 395.103305,43.608 L392.783305,43.608 L392.783305,46.512 L391.503305,46.512 L391.503305,37.174 L395.089305,37.174 C396.261305,37.174 397.165305,37.451 397.801305,38.007 L397.801305,38.007 Z M396.888305,41.92 C397.332305,41.531 397.569305,40.957 397.529305,40.368 C397.567853,39.7903087 397.329543,39.2286833 396.887305,38.855 C396.462305,38.513 395.849305,38.342 395.048305,38.342 L392.783305,38.342 L392.783305,42.436 L395.048305,42.436 C395.839305,42.443 396.452305,42.272 396.888305,41.92 L396.888305,41.92 Z M402.554305,39.826 C403.01458,39.5547457 403.54007,39.414039 404.074305,39.419 L404.074305,40.611 C403.448661,40.5439731 402.823317,40.7401077 402.348019,41.1524369 C401.872722,41.5647661 401.590272,42.1561593 401.568305,42.785 L401.568305,46.509 L400.328305,46.509 L400.328305,39.465 L401.568305,39.465 L401.568305,40.986 C401.771305,40.508 402.115305,40.104 402.554305,39.826 L402.554305,39.826 Z M410.228305,39.872 C410.764305,40.164 411.208305,40.601 411.508305,41.132 C412.122892,42.2891232 412.122892,43.6758768 411.508305,44.833 C411.210272,45.3688217 410.766448,45.8091785 410.228305,46.103 C409.048504,46.7072395 407.650106,46.7072395 406.470305,46.103 C405.933938,45.8108697 405.490424,45.3739384 405.190305,44.842 C404.577462,43.68232 404.577462,42.29468 405.190305,41.135 C405.490305,40.604 405.933305,40.167 406.470305,39.875 C407.650647,39.2700774 409.049963,39.2700774 410.230305,39.875 L410.228305,39.872 L410.228305,39.872 Z M407.120305,40.82 C406.762305,41.031 406.470305,41.339 406.280305,41.708 C406.080305,42.107 405.982305,42.548 405.994305,42.994 C405.982305,43.447 406.081305,43.894 406.280305,44.301 C406.467305,44.674 406.760305,44.984 407.120305,45.194 C407.885305,45.614 408.810305,45.614 409.575305,45.194 C409.935305,44.987 410.225305,44.679 410.415305,44.309 C410.620305,43.905 410.723305,43.456 410.715305,43.003 C410.723248,42.5561143 410.620167,42.1142422 410.415305,41.717 C410.224809,41.347595 409.933566,41.0397096 409.575305,40.829 C408.812703,40.4018843 407.882907,40.4018843 407.120305,40.829 L407.120305,40.82 L407.120305,40.82 Z" id="Shape" fill="#B1B1B1"></path>
                    <g id="Group" transform="translate(413.000305, 123.710000)" fill="#B1B1B1">
                        <polygon id="Path" points="26.615 24.481 14.262 24.481 14.262 30.658 30.658 30.658"></polygon>
                        <path d="M26.615,0 L0,0 L0,30.658 L7.187,30.658 L7.187,6.176 L26.615,6.176 L26.615,12.353 L14.262,12.353 L14.262,18.529 L26.502,18.529 C28.141535,18.5337979 29.7153165,17.884687 30.8747416,16.7254496 C32.0341668,15.5662122 32.6835325,13.9925357 32.6790236,12.353 L32.6790236,6.176 C32.6790236,2.696 29.984,0 26.615,0 L26.615,0 Z M179.679,8.984 C174.963,8.984 171.93,11.342 171.93,16.171 L171.93,20.326 C171.93,24.93 174.738,27.176 180.353,27.176 L182.15,27.176 L182.15,24.594 L180.353,24.594 C176.198,24.594 174.963,23.471 174.963,20.102 L174.963,17.856 L187.091,17.856 L187.091,16.059 C187.091,11.342 184.171,8.984 179.679,8.984 L179.679,8.984 Z M179.567,11.567 C182.487,11.567 184.171,13.027 184.171,15.385 L174.963,15.385 C175.187,12.915 176.423,11.567 179.567,11.567 L179.567,11.567 Z M161.15,16.957 L161.15,27.177 L164.182,27.177 L164.182,16.957 C164.182,13.139 165.192,11.567 169.46,11.567 L169.46,8.984 C163.396,8.984 161.15,11.567 161.15,16.957 L161.15,16.957 Z M199.444,15.834 L193.829,9.321 L190.011,9.321 L197.647,17.856 L189,27.176 L192.93,27.176 L198.995,19.765 L205.508,27.176 L209.438,27.176 L200.791,17.856 L208.428,9.321 L204.722,9.321 L199.444,15.834 L199.444,15.834 Z M112.636,8.984 C107.583,8.984 105,11.454 105,16.396 L105,19.989 C105,24.93 107.583,27.401 112.636,27.401 C117.802,27.401 120.273,25.043 120.273,20.101 L120.273,16.283 C120.16,11.567 117.69,8.984 112.636,8.984 Z M112.524,11.454 C115.893,11.454 117.128,13.251 117.128,16.508 L117.128,19.989 C117.128,23.246 115.781,25.043 112.524,25.043 C109.267,25.043 107.92,23.246 107.92,19.989 L107.92,16.508 C107.92,13.251 109.267,11.455 112.524,11.455 L112.524,11.454 Z M44.807,4.267 L44.807,27.177 L47.84,27.177 L47.84,17.294 L51.096,17.294 L57.946,27.176 L61.652,27.176 L54.352,16.957 C57.722,16.171 60.08,14.824 60.08,10.668 C60.08,6.401 57.16,4.268 51.096,4.268 L44.807,4.268 L44.807,4.267 Z M47.952,6.738 L51.209,6.738 C54.689,6.738 57.16,7.412 57.16,10.668 C57.16,14.262 54.353,14.711 51.209,14.711 L47.952,14.711 L47.952,6.738 Z M148.909,8.984 C143.856,8.984 141.273,11.454 141.273,16.396 L141.273,19.989 C141.273,24.93 143.856,27.401 148.909,27.401 C154.075,27.401 156.545,25.043 156.545,20.101 L156.545,16.283 C156.433,11.567 153.963,8.984 148.909,8.984 Z M148.797,11.454 C152.166,11.454 153.401,13.251 153.401,16.508 L153.401,19.989 C153.401,23.246 152.053,25.043 148.797,25.043 C145.54,25.043 144.193,23.246 144.193,19.989 L144.193,16.508 C144.193,13.251 145.54,11.455 148.797,11.455 L148.797,11.454 Z M124.989,6.85 L124.989,27.176 L128.021,27.176 L128.021,16.733 L137.679,16.733 L137.679,14.15 L128.021,14.15 L128.021,6.85 L137.679,6.85 L137.679,4.267 L124.989,4.267 L124.989,6.85 L124.989,6.85 Z M84.899,1.91 L84.899,20.326 C84.899,24.93 87.594,27.401 92.647,27.401 C97.701,27.401 100.059,25.043 100.059,20.101 L100.059,16.059 C100.171,11.455 97.589,8.984 93.209,8.984 C90.963,8.984 89.39,9.658 87.93,10.893 L87.93,1.909 L84.898,1.909 L84.899,1.91 Z M92.535,11.567 C95.904,11.567 97.139,13.364 97.139,16.283 L97.139,20.326 C97.139,23.246 96.129,25.043 92.535,25.043 C89.39,25.043 87.93,23.471 87.93,20.326 L87.93,16.283 C87.93,13.139 89.503,11.567 92.535,11.567 Z M72.658,8.984 C67.604,8.984 65.021,11.454 65.021,16.396 L65.021,19.989 C65.021,24.93 67.604,27.401 72.658,27.401 C77.824,27.401 80.294,25.043 80.294,20.101 L80.294,16.283 C80.182,11.567 77.711,8.984 72.658,8.984 Z M72.545,11.454 C75.915,11.454 77.15,13.251 77.15,16.508 L77.15,19.989 C77.15,23.246 75.802,25.043 72.545,25.043 C69.289,25.043 67.941,23.246 67.941,19.989 L67.941,16.508 C67.941,13.251 69.289,11.455 72.545,11.455 L72.545,11.454 Z" id="Shape"></path>
                    </g>
                </g>
                <g id="Group-3" transform="translate(321.000305, 205.710000)" fill="#B1B1B1">
                    <circle id="Oval" cx="4" cy="4" r="4"></circle>
                    <circle id="Oval" cx="22" cy="4" r="4"></circle>
                    <circle id="Oval" cx="40" cy="4" r="4"></circle>
                </g>
            </g>
            <g id="Group" transform="translate(317.000000, 214.000000)" fill="#B1B1B1" fill-rule="nonzero">
                <path d="M11.322,27.623 C10.226,27.623 8.157,27.317 8.157,24.445 C8.21687252,22.9940284 8.46219878,21.5566854 8.887,20.168 C10.043,16.868 12.174,16.196 13.574,16.196 L20.087,16.196 L21,11.002 L13.087,11.002 C9.861,10.942 6.696,12.102 4.2,14.18 C1.522,16.624 0,21.023 0,24.323 C0,27.928 1.522,33 8.704,33 L16.678,33 L17.774,27.5 L11.322,27.623 Z" id="Path"></path>
                <polygon id="Path" points="16.352 0 15 6.747 26.246 6.747 21.145 33 30.609 33 35.648 6.747 46.648 6.747 48 0"></polygon>
                <path d="M142.605,12.039 C141.255,11.244 140.088,11.061 137.386,11.061 L104.904,11.061 L103.798,16.683 C103.553,15.889 103.246,15.094 102.754,14.423 C102.192233,13.6191305 101.458031,12.9508662 100.605,12.467 C99.807,11.977 98.947,11.611 98.026,11.427 C97.166,11.244 96.246,11.122 95.386,11.061 L83.289,11.061 L79.667,29.272 L76.78,11 L65.666,11 L54.92,30.494 L54.859,26.461 C54.859,25.483 54.49,24.506 53.815,23.772 C53.139,23.1 52.28,22.733 51.297,22.612 L51.297,22.55 C52.525,22.367 53.692,21.939 54.674,21.267 C56.438422,20.1867678 57.5098165,18.2628087 57.499,16.194 C57.56,14.422 56.517,12.772 54.92,11.978 C53.876,11.428 52.648,11.122 51.481,11.061 L37.297,11.061 L36.253,16.194 L46.139,16.194 C46.692,16.194 48.903,16.194 48.903,18.028 C48.903,18.822 48.534,19.617 47.797,20.044 C46.8804079,20.4815854 45.858876,20.6514363 44.85,20.534 L35.455,20.534 L33,33 L40.982,33 L42.518,25.239 L44.36,25.239 C44.974,25.178 45.65,25.361 46.079,25.789 C46.447,26.278 46.57,26.889 46.509,27.439 L46.263,32.939 L61.921,32.939 L63.886,28.783 L71.07,28.783 L71.377,32.939 L90.904,32.939 C94.158,33 97.351,31.839 99.868,29.7 C100.482,29.15 100.974,28.539 101.465,27.928 L100.482,32.938 L118.044,32.938 L119.149,27.256 L109.754,27.256 L110.368,24.261 L118.228,24.261 L119.211,19.189 L111.351,19.189 L111.965,16.011 L133.518,16.011 C134.868,16.011 136.342,16.317 136.342,17.783 C136.342,19.433 134.992,20.35 133.395,20.35 L122.526,20.35 L120.07,32.817 L128.36,32.817 L129.895,25.056 L131.737,25.056 C132.351,24.994 133.027,25.178 133.517,25.606 C133.825,26.094 134.009,26.706 133.947,27.256 L133.702,32.756 L142.298,32.756 L142.237,26.339 C142.298,25.239 141.868,24.139 141.07,23.344 C140.401466,22.7918449 139.594733,22.4329127 138.737,22.306 L138.737,22.244 C140.211,22.061 141.561,21.45 142.728,20.534 C144.14,19.371 145,17.66 145,15.827 C145,14.421 144.079,12.832 142.605,12.037 L142.605,12.039 Z M66.65,23.222 L69.966,16.072 L70.089,16.072 L70.641,23.222 L66.651,23.222 L66.65,23.222 Z M94.65,23.712 C93.483,27.072 91.334,27.378 89.983,27.378 L88.448,27.378 L90.658,16.133 L92.255,16.133 C93.361,16.133 95.448,16.378 95.448,19.25 C95.387,20.839 95.141,22.306 94.65,23.711 L94.65,23.712 Z" id="Shape"></path>
            </g>
            <path d="M290.935,60 L285.991,64.94 L281,60 L285.99,55.015 L290.934,60 L290.935,60 Z M303.02,47.926 L311.535,56.432 L316.526,51.449 L303.02,38 L289.515,51.493 L294.505,56.476 L303.02,47.926 L303.02,47.926 Z M320.051,55.016 L315.106,60 L320.096,64.985 L325.082,60 L320.05,55.015 L320.051,55.016 Z M303.021,72.074 L294.506,63.524 L289.515,68.509 L303.02,82 L316.526,68.507 L311.535,63.524 L303.02,72.074 L303.021,72.074 Z M303.021,64.943 L308.01,59.956 L303.02,55.017 L298.03,60 L303.02,64.94 L303.02,64.943 L303.021,64.943 Z M355.491,65.456 L355.491,65.372 C355.491,62.149 353.77,60.515 350.975,59.441 C352.695,58.497 354.157,56.948 354.157,54.241 L354.157,54.157 C354.157,50.375 351.104,47.926 346.201,47.926 L334.976,47.926 L334.976,72.032 L346.459,72.032 C351.92,72.074 355.491,69.84 355.491,65.458 L355.491,65.456 L355.491,65.456 Z M348.867,55.146 C348.867,56.949 347.404,57.679 345.039,57.679 L340.138,57.679 L340.138,52.566 L345.384,52.566 C347.621,52.566 348.867,53.468 348.867,55.059 L348.867,55.145 L348.867,55.146 Z M350.201,64.77 C350.201,66.574 348.782,67.392 346.457,67.392 L340.137,67.392 L340.137,62.105 L346.287,62.105 C348.997,62.105 350.201,63.095 350.201,64.726 L350.201,64.77 Z M366.63,72.074 L366.63,47.926 L361.297,47.926 L361.297,72.032 L366.63,72.032 L366.63,72.074 Z M395.189,72.074 L395.189,47.926 L389.94,47.926 L389.94,62.794 L378.63,47.926 L373.726,47.926 L373.726,72.032 L378.974,72.032 L378.974,56.735 L390.672,72.075 L395.189,72.075 L395.189,72.074 Z M424.604,72.074 L414.242,47.797 L409.34,47.797 L398.974,72.074 L404.437,72.074 L406.63,66.661 L416.824,66.661 L419.016,72.074 L424.608,72.074 L424.604,72.074 L424.604,72.074 Z M414.928,61.976 L408.52,61.976 L411.746,54.157 L414.928,61.977 L414.928,61.976 Z M449.938,72.074 L449.938,47.926 L444.69,47.926 L444.69,62.794 L433.38,47.926 L428.476,47.926 L428.476,72.032 L433.724,72.032 L433.724,56.735 L445.422,72.075 L449.939,72.075 L449.938,72.074 Z M477.334,68.164 L473.937,64.77 C472.043,66.488 470.367,67.605 467.571,67.605 C463.443,67.605 460.561,64.167 460.561,60.042 L460.561,59.914 C460.561,55.789 463.485,52.395 467.571,52.395 C469.979,52.395 471.873,53.425 473.765,55.101 L477.161,51.191 C474.926,49 472.216,47.453 467.658,47.453 C460.261,47.453 455.056,53.081 455.056,59.913 L455.056,60 C455.056,66.917 460.345,72.417 467.443,72.417 C472.087,72.461 474.84,70.827 477.333,68.164 L477.334,68.164 Z M500,72.074 L500,67.348 L486.881,67.348 L486.881,62.277 L498.279,62.277 L498.279,57.551 L486.88,57.551 L486.88,52.652 L499.827,52.652 L499.827,47.926 L481.634,47.926 L481.634,72.032 L500,72.032 L500,72.074 L500,72.074 Z" id="Shape" fill="#B1B1B1" fill-rule="nonzero"></path>
        </g>
    </g>
</svg>