<svg xmlns="http://www.w3.org/2000/svg" viewBox="0 0 686 276">
  <g fill="none" fill-rule="nonzero">
    <g fill="#B1B1B1">
      <path d="M160.455 249.06v24.157h-5.298V249.06h5.298Zm-24.051 16.104v7.84h-5.298v-7.84h5.298Zm7.946-9.324v17.165h-5.298V255.84h5.298Zm7.84 5.404v11.973h-5.297v-11.973h5.297Zm32.528 2.755c-.53 5.933-4.132 9.853-10.701 9.853-6.993 0-11.655-5.085-11.655-12.608 0-6.993 4.45-12.608 11.76-12.608 5.828 0 9.96 3.602 10.384 8.688h-5.086c-.53-2.649-2.543-4.132-5.403-4.132-4.556 0-6.357 4.132-6.357 8.264 0 4.98 2.436 8.158 6.357 8.158 3.178 0 5.085-1.907 5.51-5.403h5.19v-.212Zm4.98 9.006v-24.157h7.416l5.616 16.528 5.51-16.528h7.31v24.157h-4.98V255.84l-5.933 17.059h-4.026l-5.934-16.847V272.9h-4.98v.106Zm44.182.106v-12.29c0-4.875-3.92-5.722-7.417-5.722h-.106c-5.086 0-7.734 2.013-8.052 5.933h4.45c.318-2.013 1.165-2.649 3.39-2.649 2.12 0 3.179.742 3.179 2.331 0 1.378-1.06 1.696-4.132 2.12l-.742.105c-3.285.424-6.887 1.166-6.887 5.51 0 3.284 2.331 5.297 6.251 5.297 2.12 0 4.132-.635 5.616-2.225v1.696h4.45v-.106Zm-4.662-8.476v2.013c0 2.542-1.801 3.814-4.238 3.814-1.695 0-2.649-.848-2.649-2.331 0-2.12 1.907-2.331 3.496-2.649 1.272-.212 2.331-.212 3.39-.847Zm11.019 8.476v-10.913c0-1.06.848-2.12 2.119-2.12h4.344v-4.661h-4.45c-3.708 0-6.675 3.072-6.675 6.78v10.808c0 .106 4.662.106 4.662.106Zm46.407-24.157v6.463h5.298v4.662h-5.298v6.145c0 1.06.848 2.119 2.12 2.119h3.284v4.662h-3.285c-3.708 0-6.675-3.073-6.675-6.781v-17.27h4.556Zm-22.462 6.569-6.569 6.463 7.31 10.913h-5.72l-4.874-7.735-2.014 1.907v5.934h-4.661v-24.157h4.661v12.926l6.146-6.251h5.721Z"/>
      <path d="M280.287 267.601h-4.556c-.636 1.801-1.801 2.543-3.496 2.543-2.543 0-4.027-1.695-4.027-4.556h12.503v-.424c0-6.145-3.285-9.96-8.582-9.96-5.086 0-8.794 3.921-8.794 9.325 0 5.51 3.496 9.111 8.9 9.111 3.92-.105 6.992-2.33 8.052-6.039Zm-4.556-5.191h-7.523c.212-2.437 1.802-3.92 3.815-3.92 2.437 0 3.602 1.906 3.708 3.92Zm32.633-1.802h-4.45c-.212-1.907-1.377-2.437-3.284-2.437-1.695 0-2.755.636-2.755 1.802 0 1.165 1.06 1.483 3.179 2.013l1.695.318c2.966.635 6.251 1.483 6.251 5.297 0 3.603-2.967 5.934-7.84 5.934-4.345 0-8.159-1.802-8.159-6.146h4.45c.212 2.12 1.484 2.967 3.709 2.967 2.013 0 3.178-.848 3.178-2.225 0-1.377-1.271-1.801-3.708-2.331l-.424-.106c-3.073-.636-6.887-1.165-6.887-5.298 0-3.39 2.755-5.403 7.523-5.403 4.026.106 7.416 1.59 7.522 5.615Z"/>
    </g>
    <path fill="#B1B1B1" d="M59.767 134.783h3.544v1.84c.57-.7 1.301-1.253 2.13-1.61a7.089 7.089 0 0 1 2.91-.575 7.615 7.615 0 0 1 4.032 1.08 7.797 7.797 0 0 1 2.822 2.938 8.869 8.869 0 0 1 0 8.324 7.82 7.82 0 0 1-2.822 2.938 7.688 7.688 0 0 1-4.06 1.08 7.403 7.403 0 0 1-2.68-.475 5.738 5.738 0 0 1-2.102-1.38v7.272h-3.774v-21.432Zm10.413 11.96a4.278 4.278 0 0 0 1.57-1.685c.392-.751.59-1.588.576-2.434a5.01 5.01 0 0 0-.575-2.42 4.43 4.43 0 0 0-1.571-1.683 4.293 4.293 0 0 0-6.077 1.656 5.621 5.621 0 0 0 0 4.897 4.18 4.18 0 0 0 3.788 2.274 4.322 4.322 0 0 0 2.289-.611v.007Zm11.178 2.968a7.627 7.627 0 0 1-2.822-2.967 8.616 8.616 0 0 1-1.008-4.14 8.423 8.423 0 0 1 1.024-4.192 7.707 7.707 0 0 1 2.792-2.898 7.558 7.558 0 0 1 3.961-1.065c1.633 0 3.013.35 4.14 1.051a7.01 7.01 0 0 1 2.6 2.774c.6 1.185.905 2.498.887 3.826 0 .288-.013.57-.04.848-.025.251-.078.498-.16.736H81.446a4.2 4.2 0 0 0 7.806 1.785l3.053 1.498a5.967 5.967 0 0 1-2.53 2.76 8.7 8.7 0 0 1-8.426-.014l.01-.002Zm1.514-11.305a4.038 4.038 0 0 0-1.339 2.399h7.36a3.42 3.42 0 0 0-1.108-2.347 3.554 3.554 0 0 0-2.491-.908 3.68 3.68 0 0 0-2.422.849v.007Zm11.67-3.623h3.543v1.84a5.601 5.601 0 0 1 2.132-1.61 7.09 7.09 0 0 1 2.91-.575 7.624 7.624 0 0 1 4.032 1.08 7.807 7.807 0 0 1 2.822 2.938 8.868 8.868 0 0 1 0 8.324 7.826 7.826 0 0 1-2.822 2.938 7.7 7.7 0 0 1-4.062 1.08 7.402 7.402 0 0 1-2.678-.475 5.739 5.739 0 0 1-2.102-1.38v7.272h-3.774v-21.432Zm10.413 11.96a4.27 4.27 0 0 0 1.569-1.685c.392-.75.59-1.587.577-2.434a5.001 5.001 0 0 0-.577-2.42 4.423 4.423 0 0 0-1.569-1.683 4.287 4.287 0 0 0-4.963.298c-.461.371-.84.833-1.114 1.358a5.621 5.621 0 0 0 0 4.897 4.185 4.185 0 0 0 3.786 2.274c.803.013 1.595-.2 2.284-.611l.007.007Zm7.88-11.96h3.543v1.84a5.602 5.602 0 0 1 2.132-1.61 7.086 7.086 0 0 1 2.91-.575 7.621 7.621 0 0 1 4.032 1.08 7.818 7.818 0 0 1 2.822 2.938 8.869 8.869 0 0 1 0 8.324 7.83 7.83 0 0 1-2.822 2.938 7.695 7.695 0 0 1-4.062 1.08 7.397 7.397 0 0 1-2.677-.475 5.737 5.737 0 0 1-2.103-1.38v7.272h-3.782l.007-21.432Zm10.413 11.96a4.27 4.27 0 0 0 1.569-1.685 5.09 5.09 0 0 0 .577-2.434 5.012 5.012 0 0 0-.577-2.42 4.423 4.423 0 0 0-1.569-1.683 4.292 4.292 0 0 0-6.076 1.656 5.61 5.61 0 0 0 0 4.897 4.176 4.176 0 0 0 3.785 2.274c.804.013 1.595-.2 2.285-.611l.006.007Zm11.195 2.968a7.633 7.633 0 0 1-2.825-2.967 8.608 8.608 0 0 1-1.007-4.14 8.414 8.414 0 0 1 1.024-4.192 7.708 7.708 0 0 1 2.785-2.898 7.56 7.56 0 0 1 3.961-1.065c1.633 0 3.013.35 4.14 1.051a6.994 6.994 0 0 1 2.6 2.774 8.228 8.228 0 0 1 .894 3.832c0 .288-.016.57-.044.85-.024.25-.077.497-.158.735h-11.292a4.2 4.2 0 0 0 7.807 1.785l3.052 1.498a5.961 5.961 0 0 1-2.53 2.76 8.692 8.692 0 0 1-8.423-.014l.016-.01Zm1.512-11.305a4.053 4.053 0 0 0-1.34 2.403h7.361a3.422 3.422 0 0 0-1.108-2.346 3.554 3.554 0 0 0-2.492-.909 3.682 3.682 0 0 0-2.431.845l.01.007Zm11.65-3.616h3.542v2.217c.32-.81.923-1.476 1.7-1.872a5.865 5.865 0 0 1 2.53-.518h.92v3.335h-1.355a3.49 3.49 0 0 0-2.578.994c-.663.662-.994 1.589-.994 2.779v8.726h-3.772l.007-15.661Zm11.297 14.806a6.146 6.146 0 0 1-2.547-3.22l2.822-1.353c.377.826.962 1.54 1.7 2.07a4.058 4.058 0 0 0 2.39.75 2.73 2.73 0 0 0 1.627-.446 1.437 1.437 0 0 0 .62-1.224 1.24 1.24 0 0 0-.532-1.053 3.882 3.882 0 0 0-1.283-.59l-2.57-.735c-1.324-.384-2.328-.97-3.01-1.758a4.139 4.139 0 0 1-1.022-2.794 4.366 4.366 0 0 1 .734-2.53 4.861 4.861 0 0 1 2.036-1.659 7.7 7.7 0 0 1 6.927.476 5.933 5.933 0 0 1 2.42 2.99l-2.882 1.353a3.29 3.29 0 0 0-1.338-1.7 3.842 3.842 0 0 0-2.146-.632 2.342 2.342 0 0 0-1.498.432 1.363 1.363 0 0 0-.547 1.123 1.212 1.212 0 0 0 .517 1.037c.405.275.853.48 1.325.605l2.507.747c1.307.367 2.304.943 2.99 1.73a4.126 4.126 0 0 1 1.037 2.822 4.262 4.262 0 0 1-.749 2.491 4.982 4.982 0 0 1-2.07 1.686 7.448 7.448 0 0 1-3.112.605 7.823 7.823 0 0 1-4.353-1.23l.007.007Zm15.283-.433c-.97-.98-1.454-2.343-1.454-4.09v-7.12h-2.707v-3.17h.288c.768 0 1.364-.2 1.786-.605.424-.405.633-.99.633-1.757V130.1h3.775v4.683h3.602v3.17h-3.6v6.9c0 .786.209 1.391.632 1.815.424.423 1.095.632 2.018.632.337-.002.674-.03 1.007-.085v3.22c-.268.04-.577.078-.92.115a8.634 8.634 0 0 1-.95.06c-1.774.01-3.147-.474-4.117-1.454l.007.007Zm10.642.575a8.17 8.17 0 0 1-4.157-7.11 8.17 8.17 0 0 1 4.143-7.118 8.779 8.779 0 0 1 8.382 0 8.097 8.097 0 0 1 2.991 2.91 8.515 8.515 0 0 1-.014 8.425 8.096 8.096 0 0 1-2.99 2.91 8.74 8.74 0 0 1-8.341-.017h-.014Zm6.424-2.99a4.244 4.244 0 0 0 1.528-1.686 5.219 5.219 0 0 0 .561-2.433 5.137 5.137 0 0 0-.56-2.42 4.399 4.399 0 0 0-1.529-1.684 4.03 4.03 0 0 0-2.23-.619 4.187 4.187 0 0 0-2.264.62 4.322 4.322 0 0 0-1.555 1.683 5.112 5.112 0 0 0-.56 2.42c-.015.844.178 1.68.56 2.433.35.696.89 1.28 1.555 1.686a4.282 4.282 0 0 0 2.264.605 4.119 4.119 0 0 0 2.224-.616l.006.011Zm7.84-11.96h3.544v1.93a4.106 4.106 0 0 1 1.798-1.7 5.874 5.874 0 0 1 2.637-.576 6.181 6.181 0 0 1 3.068.75 5.343 5.343 0 0 1 2.089 2.086c.513.951.77 2.019.747 3.099v10.079h-3.772v-9.191c0-1.037-.293-1.858-.878-2.464a3.054 3.054 0 0 0-2.3-.906 3.016 3.016 0 0 0-2.301.92c-.587.616-.879 1.43-.879 2.45v9.186h-3.76l.007-15.664Zm19.337 14.92a7.615 7.615 0 0 1-2.824-2.967 8.62 8.62 0 0 1-1.008-4.14 8.424 8.424 0 0 1 1.024-4.19 7.707 7.707 0 0 1 2.785-2.897 7.556 7.556 0 0 1 3.96-1.065c1.634 0 3.014.35 4.14 1.051a7.013 7.013 0 0 1 2.596 2.774 8.215 8.215 0 0 1 .894 3.832c0 .288-.016.57-.043.85-.024.25-.077.497-.16.735h-11.29c.073.89.427 1.733 1.01 2.407a4.202 4.202 0 0 0 6.796-.622l3.052 1.498a5.967 5.967 0 0 1-2.53 2.76 8.694 8.694 0 0 1-8.423-.014l.02-.012Zm1.511-11.305a4.052 4.052 0 0 0-1.338 2.404h7.36a3.417 3.417 0 0 0-1.109-2.346 3.553 3.553 0 0 0-2.49-.909 3.68 3.68 0 0 0-2.43.847l.007.004ZM43.481 130.44c-8.115-4.665-25.013-8.33-33.96-8.568-8.948-.238-9.947 2.95-9.4 10.208.55 7.26 2.642 18.586 7.26 25.82 4.616 7.235 11.756 10.377 19.324 7.784 7.567-2.595 15.565-10.925 19.895-17.922 4.33-6.992 4.997-12.658-3.119-17.322Z"/>
    <path fill="#FFF" d="M27.594 150.372h-5.691v9.465h-5.795V138.78h5.795v5.795h5.69v-.016a4.384 4.384 0 0 0 0-8.766v-.005H8.863l2.118-5.794H27.59c5.638 0 10.21 4.572 10.21 10.21.003 5.64-4.57 10.168-10.207 10.168Z"/>
    <path fill="#B1B1B1" d="m679.215 132.146-4.974 8.616-4.974-8.616h-6.805l8.762 13.423v9.886h5.619v-9.886l8.97-13.423h-6.598Zm-40.187 9.968h-2.664v-5.431h2.997c1.686 0 3.746.416 3.746 2.601 0 2.373-2.268 2.83-4.079 2.83m9.636-2.934c0-5.328-4.454-7.034-8.928-7.034h-8.887v23.309h5.536v-9.261h1.915l5.036 9.26h6.597l-6.097-9.968c2.996-.937 4.849-3.163 4.828-6.306m-47.93 11.26c-3.704 0-6.264-2.852-6.264-6.827 0-3.85 2.54-6.701 6.265-6.701 3.725 0 6.306 2.85 6.306 6.7 0 3.955-2.623 6.827-6.306 6.827m0-18.314c-6.868 0-11.967 4.433-11.967 11.488 0 6.951 5.099 11.675 11.967 11.675 6.888 0 11.987-4.724 11.987-11.675 0-7.055-5.099-11.488-11.987-11.488m-35.526.02h5.328v23.31h-5.328v-23.31Zm-34.797 0h-7.721l6.68 9.012 3.892-5.182-2.85-3.83Zm10.115 0-17.337 23.289h7.784l17.274-23.288h-7.721Zm.353 23.31h7.826l-6.681-9.053-3.913 5.327 2.768 3.726Zm-45.307-9.095 2.976-8.012 2.872 8.012h-5.848Zm.333-14.214-9.781 23.309h6.118l1.707-4.579h9.011l1.811 4.579h6.264l-9.677-23.31h-5.453ZM333.01 121.29h-23.343v1.1c2.69.123 3.543.49 3.543 3.3v18.943c0 2.934-.86 3.177-3.543 3.3v.977h13.076v-.977c-3.3-.123-4.033-.49-4.033-3.3v-9.043h4.764c3.543 0 5.256.86 5.867 4.033h1.1v-9.78h-1.1c-.49 2.934-1.467 3.667-5.867 3.667h-4.764v-8.8c0-1.1.244-1.343 1.59-1.343h4.157c5.5 0 6.476.976 7.447 4.033h1.1l.006-6.11Zm17.723 24.81-5.376-7.943 2.933-3.667c1.956-2.323 3.056-3.544 4.767-3.667v-1.1h-7.58v1.1c1.343 0 1.956.367 1.956 1.223 0 .734-.859 1.72-1.59 2.444l-1.718 1.956-1.957-2.933c-.49-.61-.86-1.1-.86-1.719 0-.618.734-.977 1.957-.977v-1.1h-10.132v1.1c1.467.367 2.077 1.224 2.81 2.324l5.005 7.336-4.157 4.89c-1.466 1.718-2.2 2.323-3.91 2.578v.977h7.448v-.977c-.977 0-2.077-.244-2.077-.86 0-.615.734-1.466 1.957-2.933l1.719-2.077 2.076 3.057c.734 1.1 1.1 1.59 1.1 1.956 0 .49-.733.734-2.076.734v.976h10.39v-.976c-.851.235-1.585-.012-2.685-1.722Zm17.477-24.81h-13.077v1.1c2.81.123 3.544.49 3.544 3.3v18.943c0 2.934-.734 3.177-3.544 3.3v.977h12.834v-.977c-2.934-.123-3.667-.49-3.667-3.3v-7.21h3.667c7.09 0 10.885-2.81 10.885-8.066-.129-4.524-3.062-8.067-10.642-8.067Zm-4.033 14.543v-11.366c0-.977.366-1.59 2.323-1.59 3.667 0 6.477 2.077 6.477 5.866 0 4.4-2.32 7.09-8.8 7.09Zm27.623-6.476c-2.323 0-3.79 1.833-4.523 3.543h-.123v-2.933c0-.367 0-.61-.244-.61-.367 0-4.89 1.223-6.967 1.59v1.1c1.834 0 2.324.366 2.324 2.443v11.123c0 1.719-.734 2.077-2.324 2.323v.977h10.144v-.977c-1.833 0-2.933-.49-2.933-2.578V134.61c.61-.977 1.343-1.59 2.076-1.59.392.027.77.154 1.1.367.367.243.86.86 1.957.86a2.191 2.191 0 0 0 2.2-2.2c.123-1.224-.73-2.69-2.687-2.69Zm11.733 0c-5.5 0-9.29 4.276-9.29 10.143 0 5.867 3.79 10.143 9.29 10.143 5.5 0 9.29-4.276 9.29-10.143 0-5.867-3.79-10.143-9.29-10.143Zm0 18.576c-2.933 0-4.033-2.578-4.033-8.433s1.223-8.433 4.033-8.433c2.934 0 4.034 2.578 4.034 8.433.126 5.867-1.1 8.433-4.034 8.433Zm-93.783 10.53h7.293v1.175h-3.022v8.164h-1.272v-8.158h-3v-1.18Zm10.266 2.653c.46-.271.987-.412 1.522-.407v1.192a2.269 2.269 0 0 0-2.507 2.174v3.724h-1.24v-7.044h1.24v1.521c.203-.478.547-.882.985-1.16Zm6.867 6.686v-.988c-.525.693-1.347 1.04-2.467 1.04a2.822 2.822 0 0 1-1.286-.287 2.054 2.054 0 0 1-.86-.773 2.08 2.08 0 0 1-.286-1.106 1.81 1.81 0 0 1 .7-1.501 3.151 3.151 0 0 1 1.953-.573h2.24v-.332a1.458 1.458 0 0 0-.461-1.146 1.965 1.965 0 0 0-1.34-.407 3.836 3.836 0 0 0-2.175.76l-.518-.86c.437-.295.91-.534 1.406-.713a4.798 4.798 0 0 1 1.541-.22c.88 0 1.56.215 2.04.646.495.467.763 1.126.733 1.805v4.64l-1.22.015Zm-.74-1.392c.388-.254.652-.658.728-1.114v-.708h-2.065c-.43-.029-.86.058-1.246.252a.86.86 0 0 0-.407.8c-.01.336.143.656.413.859.322.228.711.34 1.105.32a2.53 2.53 0 0 0 1.473-.41Zm10.754-8.5v9.892h-1.24v-1.4c-.25.454-.622.83-1.074 1.085-.48.262-1.02.393-1.567.381a3.366 3.366 0 0 1-1.768-.461 3.151 3.151 0 0 1-1.194-1.28 4.01 4.01 0 0 1-.427-1.874 3.887 3.887 0 0 1 .427-1.848c.272-.524.686-.96 1.194-1.26a3.38 3.38 0 0 1 1.754-.453 3.254 3.254 0 0 1 1.587.373c.452.249.822.624 1.065 1.08v-4.24l1.243.006Zm-2.394 8.574c.364-.211.662-.52.859-.893a2.91 2.91 0 0 0 0-2.601 2.246 2.246 0 0 0-.86-.894 2.372 2.372 0 0 0-1.234-.321 2.343 2.343 0 0 0-1.235.327 2.292 2.292 0 0 0-.859.899 2.882 2.882 0 0 0 0 2.578c.197.373.495.683.86.894.766.426 1.699.426 2.466 0l.003.011Zm10.195-4.806c.56.645.839 1.54.839 2.687v.4h-5.586c.071.583.354 1.12.794 1.507a2.346 2.346 0 0 0 1.592.573c.4.003.796-.074 1.166-.226.354-.148.673-.366.94-.642l.681.708c-.35.373-.777.666-1.251.86-.517.209-1.07.313-1.627.306a3.744 3.744 0 0 1-1.848-.447 3.134 3.134 0 0 1-1.252-1.26 4.053 4.053 0 0 1 0-3.702c.29-.529.721-.967 1.246-1.266a3.598 3.598 0 0 1 1.828-.458c1.09-.006 1.916.314 2.478.96Zm-.287 2.125a2.045 2.045 0 0 0-2.188-2.068 2.232 2.232 0 0 0-1.553.573c-.423.394-.686.93-.739 1.507l4.48-.012Zm6.434-5.34h1.275v8.173h4.079v1.16h-5.354v-9.332Zm8.032-.3a.86.86 0 0 1 0 1.146.788.788 0 0 1-1.105 0 .86.86 0 0 1 0-1.146.788.788 0 0 1 1.105 0Zm-1.166 2.578h1.24v7.061h-1.24v-7.061Zm8.586 7.061-2.255-3.437-1.372 1.432v2.005h-1.24v-9.891h1.24v6.302l3.415-3.458h1.452l-2.63 2.733 2.882 4.32-1.492-.006Zm7.814-6.124c.56.645.84 1.54.84 2.687v.4h-5.586a2.4 2.4 0 0 0 .793 1.507 2.346 2.346 0 0 0 1.593.573c.4.003.796-.074 1.166-.226.353-.148.673-.366.94-.642l.678.708c-.35.373-.778.666-1.252.86-.516.209-1.07.313-1.627.306a3.741 3.741 0 0 1-1.847-.447 3.128 3.128 0 0 1-1.252-1.26 4.06 4.06 0 0 1 0-3.702c.29-.529.721-.967 1.246-1.266a3.598 3.598 0 0 1 1.827-.458c1.095-.006 1.922.314 2.481.96Zm-.286 2.125a2.045 2.045 0 0 0-2.186-2.068 2.229 2.229 0 0 0-1.553.573c-.423.394-.686.93-.739 1.507l4.478-.012Zm10.622 4v-.99c-.524.694-1.346 1.04-2.467 1.04a2.822 2.822 0 0 1-1.286-.286 2.057 2.057 0 0 1-.86-.773 2.091 2.091 0 0 1-.286-1.106 1.81 1.81 0 0 1 .7-1.501 3.151 3.151 0 0 1 1.953-.573h2.24v-.332a1.458 1.458 0 0 0-.461-1.146 1.962 1.962 0 0 0-1.34-.407 3.833 3.833 0 0 0-2.175.76l-.522-.86c.438-.295.91-.534 1.407-.713a4.792 4.792 0 0 1 1.541-.22c.88 0 1.56.215 2.04.646.494.467.762 1.126.733 1.805v4.64l-1.217.015Zm-.74-1.393c.388-.254.652-.658.728-1.114v-.708h-2.068c-.43-.029-.86.058-1.246.252a.86.86 0 0 0-.407.8c-.01.336.143.656.413.859.323.228.713.341 1.108.32a2.53 2.53 0 0 0 1.47-.41h.003Zm14.094-7.113a2.905 2.905 0 0 1 .954 2.32c0 1.041-.32 1.848-.96 2.421-.64.573-1.537.86-2.692.86h-2.32v2.904h-1.28v-9.338h3.586c1.172 0 2.076.277 2.712.833Zm-.913 3.913c.444-.389.681-.963.641-1.552a1.822 1.822 0 0 0-.642-1.513c-.425-.342-1.038-.513-1.839-.513h-2.265v4.094h2.265c.791.007 1.404-.164 1.84-.516Zm5.666-2.094a2.94 2.94 0 0 1 1.52-.407v1.192a2.266 2.266 0 0 0-2.506 2.174v3.724h-1.24v-7.044h1.24v1.521c.203-.478.547-.882.986-1.16Zm7.674.046c.536.292.98.729 1.28 1.26a3.945 3.945 0 0 1 0 3.701 3.243 3.243 0 0 1-1.28 1.27 4.122 4.122 0 0 1-3.758 0 3.26 3.26 0 0 1-1.28-1.261 3.967 3.967 0 0 1 0-3.707c.3-.531.743-.968 1.28-1.26a4.122 4.122 0 0 1 3.76 0l-.002-.003Zm-3.108.948c-.358.211-.65.519-.84.888-.2.399-.298.84-.286 1.286-.012.453.087.9.286 1.307.187.373.48.683.84.893.765.42 1.69.42 2.455 0 .36-.207.65-.515.84-.885.205-.404.308-.853.3-1.306a2.701 2.701 0 0 0-.3-1.286 2.2 2.2 0 0 0-.84-.888 2.512 2.512 0 0 0-2.455 0v-.009Z"/>
    <g fill="#B1B1B1">
      <path d="M439.615 269.481h-12.353v6.177h16.396z"/>
      <path d="M439.615 245H413v30.658h7.187v-24.482h19.428v6.177h-12.353v6.176h12.24a6.159 6.159 0 0 0 6.177-6.176v-6.177c0-3.48-2.695-6.176-6.064-6.176Zm153.064 8.984c-4.716 0-7.749 2.358-7.749 7.187v4.155c0 4.604 2.808 6.85 8.423 6.85h1.797v-2.582h-1.797c-4.155 0-5.39-1.123-5.39-4.492v-2.246h12.128v-1.797c0-4.717-2.92-7.075-7.412-7.075Zm-.112 2.583c2.92 0 4.604 1.46 4.604 3.818h-9.208c.224-2.47 1.46-3.818 4.604-3.818Zm-18.417 5.39v10.22h3.032v-10.22c0-3.818 1.01-5.39 5.278-5.39v-2.583c-6.064 0-8.31 2.583-8.31 7.973Zm38.294-1.123-5.615-6.513h-3.818l7.636 8.535-8.647 9.32h3.93l6.065-7.411 6.513 7.411h3.93l-8.647-9.32 7.637-8.535h-3.706l-5.278 6.513Zm-86.808-6.85c-5.053 0-7.636 2.47-7.636 7.412v3.593c0 4.941 2.583 7.412 7.636 7.412 5.166 0 7.637-2.358 7.637-7.3v-3.818c-.113-4.716-2.583-7.299-7.637-7.299Zm-.112 2.47c3.369 0 4.604 1.797 4.604 5.054v3.481c0 3.257-1.347 5.054-4.604 5.054s-4.604-1.797-4.604-5.054v-3.481c0-3.257 1.347-5.053 4.604-5.053Zm-67.717-7.187v22.91h3.033v-9.883h3.256l6.85 9.882h3.706l-7.3-10.219c3.37-.786 5.728-2.133 5.728-6.289 0-4.267-2.92-6.4-8.984-6.4h-6.289Zm3.145 2.471h3.257c3.48 0 5.951.674 5.951 3.93 0 3.594-2.807 4.043-5.951 4.043h-3.257v-7.973Zm100.957 2.246c-5.053 0-7.636 2.47-7.636 7.412v3.593c0 4.941 2.583 7.412 7.636 7.412 5.166 0 7.636-2.358 7.636-7.3v-3.818c-.112-4.716-2.582-7.299-7.636-7.299Zm-.112 2.47c3.369 0 4.604 1.797 4.604 5.054v3.481c0 3.257-1.348 5.054-4.604 5.054-3.257 0-4.604-1.797-4.604-5.054v-3.481c0-3.257 1.347-5.053 4.604-5.053Zm-23.808-4.604v20.326h3.032v-10.443h9.658v-2.583h-9.658v-7.3h9.658v-2.583h-12.69v2.583Zm-40.09-4.94v18.416c0 4.604 2.695 7.075 7.748 7.075 5.054 0 7.412-2.358 7.412-7.3v-4.042c.112-4.604-2.47-7.075-6.85-7.075-2.246 0-3.819.674-5.279 1.909v-8.984h-3.032Zm7.636 9.657c3.369 0 4.604 1.797 4.604 4.716v4.043c0 2.92-1.01 4.717-4.604 4.717-3.145 0-4.605-1.572-4.605-4.717v-4.043c0-3.144 1.573-4.716 4.605-4.716Zm-19.877-2.583c-5.054 0-7.637 2.47-7.637 7.412v3.593c0 4.941 2.583 7.412 7.637 7.412 5.166 0 7.636-2.358 7.636-7.3v-3.818c-.112-4.716-2.583-7.299-7.636-7.299Zm-.113 2.47c3.37 0 4.605 1.797 4.605 5.054v3.481c0 3.257-1.348 5.054-4.605 5.054-3.256 0-4.604-1.797-4.604-5.054v-3.481c0-3.257 1.348-5.053 4.604-5.053Z"/>
    </g>
    <g fill="#B1B1B1">
      <path d="M430.322 29.623c-1.096 0-3.165-.306-3.165-3.178a17.02 17.02 0 0 1 .73-4.277c1.156-3.3 3.287-3.972 4.687-3.972h6.513l.913-5.194h-7.913c-3.226-.06-6.391 1.1-8.887 3.178-2.678 2.444-4.2 6.843-4.2 10.143 0 3.605 1.522 8.677 8.704 8.677h7.974l1.096-5.5-6.452.123Z"/>
      <path d="M435.352 2 434 8.747h11.246L440.145 35h9.464l5.039-26.253h11L467 2z"/>
      <path d="M561.605 14.039c-1.35-.795-2.517-.978-5.219-.978h-32.482l-1.106 5.622c-.245-.794-.552-1.589-1.044-2.26a6.586 6.586 0 0 0-2.149-1.956c-.798-.49-1.658-.856-2.579-1.04-.86-.183-1.78-.305-2.64-.366h-12.097l-3.622 18.211L495.78 13h-11.114L473.92 32.494l-.061-4.033c0-.978-.369-1.955-1.044-2.689-.676-.672-1.535-1.039-2.518-1.16v-.062c1.228-.183 2.395-.611 3.377-1.283a5.912 5.912 0 0 0 2.825-5.073c.061-1.772-.982-3.422-2.579-4.216-1.044-.55-2.272-.856-3.439-.917h-14.184l-1.044 5.133h9.886c.553 0 2.764 0 2.764 1.834 0 .794-.369 1.589-1.106 2.016a5.393 5.393 0 0 1-2.947.49h-9.395L452 35h7.982l1.536-7.761h1.842c.614-.061 1.29.122 1.719.55.368.489.491 1.1.43 1.65l-.246 5.5h15.658l1.965-4.156h7.184l.307 4.156h19.527c3.254.061 6.447-1.1 8.964-3.239.614-.55 1.106-1.161 1.597-1.772l-.983 5.01h17.562l1.105-5.682h-9.395l.614-2.995h7.86l.983-5.072h-7.86l.614-3.178h21.553c1.35 0 2.824.306 2.824 1.772 0 1.65-1.35 2.567-2.947 2.567h-10.869l-2.456 12.467h8.29l1.535-7.761h1.842c.614-.062 1.29.122 1.78.55.308.488.492 1.1.43 1.65l-.245 5.5h8.596l-.061-6.417c.061-1.1-.369-2.2-1.167-2.995a4.757 4.757 0 0 0-2.333-1.038v-.062c1.474-.183 2.824-.794 3.991-1.71C563.14 21.371 564 19.66 564 17.827c0-1.406-.921-2.995-2.395-3.79ZM485.65 25.222l3.316-7.15h.123l.552 7.15h-3.99Zm28 .49c-1.167 3.36-3.316 3.666-4.667 3.666h-1.535l2.21-11.245h1.597c1.106 0 3.193.245 3.193 3.117-.061 1.589-.307 3.056-.798 4.461Z"/>
    </g>
    <path fill="#B1B1B1" d="m124.935 22-4.944 4.94L115 22l4.99-4.985L124.934 22ZM137.02 9.926l8.515 8.506 4.991-4.983L137.02 0l-13.505 13.493 4.99 4.983 8.515-8.55Zm17.031 7.09L149.106 22l4.99 4.985L159.082 22l-5.032-4.985Zm-17.03 17.058-8.515-8.55-4.991 4.985L137.02 44l13.506-13.493-4.991-4.983-8.515 8.55Zm0-7.131 4.989-4.987-4.99-4.939L132.03 22l4.99 4.94v.003Zm52.47.513v-.084c0-3.223-1.721-4.857-4.516-5.931 1.72-.944 3.182-2.493 3.182-5.2v-.084c0-3.782-3.053-6.231-7.956-6.231h-11.225v24.106h11.483c5.461.042 9.032-2.192 9.032-6.574v-.002Zm-6.624-10.31c0 1.803-1.463 2.533-3.828 2.533h-4.901v-5.113h5.246c2.237 0 3.483.902 3.483 2.493v.086Zm1.334 9.624c0 1.804-1.419 2.622-3.744 2.622h-6.32v-5.287h6.15c2.71 0 3.914.99 3.914 2.621v.044Zm16.429 7.304V9.926h-5.333v24.106h5.333v.042Zm28.559 0V9.926h-5.249v14.868L212.63 9.926h-4.904v24.106h5.248V18.735l11.698 15.34h4.517Zm29.415 0L248.242 9.797h-4.902l-10.366 24.277h5.463l2.193-5.413h10.194l2.192 5.413h5.592-.004Zm-9.676-10.098h-6.408l3.226-7.819 3.182 7.82Zm35.01 10.098V9.926h-5.248v14.868L267.38 9.926h-4.904v24.106h5.248V18.735l11.698 15.34h4.517Zm27.396-3.91-3.397-3.394c-1.894 1.718-3.57 2.835-6.366 2.835-4.128 0-7.01-3.438-7.01-7.563v-.128c0-4.125 2.924-7.519 7.01-7.519 2.408 0 4.302 1.03 6.194 2.706l3.396-3.91c-2.235-2.191-4.945-3.738-9.503-3.738-7.397 0-12.602 5.628-12.602 12.46V22c0 6.917 5.289 12.417 12.387 12.417 4.644.044 7.397-1.59 9.89-4.253ZM334 34.074v-4.726h-13.119v-5.071h11.398v-4.726H320.88v-4.899h12.947V9.926h-18.193v24.106H334v.042Z"/>
  </g>
</svg>
