<svg xmlns="http://www.w3.org/2000/svg" xmlns:xlink="http://www.w3.org/1999/xlink" width="245.464" height="43.8" viewBox="0 -1460 13562 2420" fill="rgb(204, 204, 204)">
  <defs>
    <path id="a" d="M52 648q0 22 13 35h11q42-3 105-3 118 0 139 3h10q6-6 6-9t-2-18q-5-15-9-19h-21q-22-2-30-2-29-5-32-15 0-2 29-251t30-251l73 117q73 117 146 236t75 123q4 7 4 15 0 24-44 28-18 0-18 11 0 1 2 13 3 14 6 18t13 4h12q10 0 34-1t64-1q69 0 87 2h7q7-7 7-11 0-17-9-32-3-3-17-3-13-1-24-2t-21-5-16-7-12-8-10-7-8-9-7-7L452 282Q272-9 266-16q-3-2-7-5l-18-1h-7q-18 0-18 7-3 6-39 320-38 318-39 321-5 11-62 11H59q-7 5-7 11Z"/>
    <path id="b" d="M436 683q14 0 50-1t67-2q51 0 85 1t39 1q18 0 18-8 0-4-3-15-5-18-9-20t-22-2q-25-1-40-5t-21-8-3-9q0-12 16-238t16-239l2 3q2 3 6 10t12 19 17 30 24 41 30 54 39 67q104 184 118 210t15 32q0 15-19 24t-42 9q-14 0-14 10 0 3 2 13 4 16 6 19t14 3h56q25 0 54-1 66 0 85 2 14 0 14-11 0-6-3-17t-7-15-10-3q-22 0-40-6t-30-14-19-17-12-16l-4-6-169-296Q586-14 585-15q-6-7-24-7-15 0-19 5-3 3-19 246t-17 251l-12-18q-22-37-128-223Q222-13 220-15t-5-4q-5-3-18-3-19 0-21 7 0 3-22 319t-23 318q-2 9-10 11t-39 4H58q-7 7-7 11 1 23 13 35h12q42-3 100-3 125 0 137 3h10q6-6 6-9t-2-18q-5-15-9-19h-21q-61-3-65-17 30-460 34-484l235 414-2 37q-3 42-10 45-6 4-42 5-19 0-25 2t-6 9q0 2 2 12 1 4 2 9t1 7 3 4 4 2 8 1Z"/>
    <path id="c" d="M208 74q0-24 46-28 18 0 18-11 0-1-2-13-3-14-6-18t-13-4h-12q-10 0-34 1t-64 1Q70 2 50 0h-8q-7 7-7 11 2 27 13 35h14q70 3 102 50 6 6 181 305t178 303q7 12 24 12h25q6-9 6-10l28-323q28-323 30-326 5-11 65-11 25 0 25-10 0-2-3-14-3-15-5-18t-14-4h-14q-11 0-39 1t-73 1q-94 0-123-2h-12q-6 6-6 9t2 18q4 13 6 16l4 3h20q54 3 64 17l-12 150H283l-34-58q-41-69-41-81Zm308 186q0 11-12 156t-14 146l-27-43q-16-27-63-107l-90-152 103-1q103 0 103 1Z"/>
    <path id="d" d="M287 628q0 7-57 9-24 0-31 1t-7 10q0 1 2 11 6 20 9 22t194 2q190-1 203-3 64-11 107-49t44-101q0-77-66-141-69-68-178-86-7-1-105-2h-95l-30-119Q247 66 247 59q0-4 1-5t7-4 17-2 33-2h31q6-9 6-11 0-16-7-30-5-5-16-5-3 0-37 1T182 2H87Q54 2 51 1 33 1 33 11q0 2 3 14 4 16 8 18t23 3q27 0 60 3 14 3 19 12 3 4 72 278t69 289Zm358-74q0 13-2 21t-9 22-25 22-49 16q-7 1-80 2h-35q-18 0-29-1t-12 0q-13-1-18-9-2-6-19-77t-35-138-18-68q0-2 81-2h35q112 0 160 50 27 27 41 79t14 83Z"/>
    <path id="e" d="M56 347q0 13 14 20h637q15-8 15-20 0-11-14-19l-318-1H72q-16 5-16 20Zm0-194q0 15 16 20h636q14-10 14-20 0-13-15-20H70q-14 7-14 20Z"/>
    <path id="f" d="M61 748q3 2 428 2h424l41-110q11-31 22-61t17-46 6-17h-20l-20 1q-23 62-73 104t-109 61q-53 18-122 23t-219 5H319q-136 0-136-1 3-3 165-225t163-225q6-9 2-15l-23-28q-24-28-70-82T330 27L149-187q0-1 213-1h74q48 0 70-1 173 0 272 27T936-43q10 16 23 49h40l-86-255-424-1q-424 0-427 2-6 2-6 9 0 5 62 78 68 80 127 150l183 217q0 1-186 256L57 717l-1 11q0 16 5 20Z"/>
    <path id="g" d="M94 250q0 69 10 131t23 107 37 88 38 67 42 52 33 34 25 21h17q14 0 14-9 0-3-17-21t-41-53-49-86-42-138-17-193 17-192 41-139 49-86 42-53 17-21q0-9-15-9h-16l-28 24q-94 85-137 212T94 250Z"/>
    <path id="h" d="M201-11q-75 0-121 49T34 156q0 65 30 123t82 101q76 61 155 61 32 0 40-1 13-3 26-7t35-16 36-30 26-49 12-70q0-107-86-193T201-11Zm-80 131q0-50 26-72t59-22q44 0 83 32t62 84q9 21 23 74t14 92q0 44-18 67-24 30-64 30-63 0-111-58-37-44-55-117t-19-110Z"/>
    <path id="i" d="M117 59q0-33 25-33 37 0 63 105 6 20 10 21 2 1 10 1h16q3 0 5-2t2-7q-1-6-3-16t-11-38-20-47-31-37-46-17q-36 0-67 22T38 85q0 12 1 17l65 258q63 255 63 263 0 3-1 5t-4 4-5 2-8 1-8 1-9 1-10 0h-13q-3 0-8 1t-6 3-1 6q0 2 2 14 5 19 11 21t72 6q15 1 34 2t30 3 11 1q12 0 12-8 0-11-73-300T118 83v-8q0-6-1-10v-6Z"/>
    <path id="j" d="M21 287q0 8 9 31t25 52 44 50 59 22q46 0 69-25t23-59q0-18-34-112t-34-141q0-43 14-60t42-18 53 17 37 34l11 17q2 4 38 152 30 120 36 140t14 29q17 15 36 15 17 0 25-10t8-19L420 84q-1-5-1-16 0-25 7-33t21-9q22 3 35 31t30 88q2 8 20 8 19 0 19-9-1-5-2-14t-9-32-17-43-25-38-36-25q-8-2-24-2-66 0-91 56-2-1-11-10t-18-15-22-15-29-12-34-5q-44 0-78 18-52 31-52 106 0 57 35 149t35 117v14q0 3-4 7t-11 4h-4q-23 0-42-19t-30-41-17-42-8-22q-2-2-16-2H27q-6 6-6 9Z"/>
    <path id="k" d="M21 287q1 6 3 16t12 38 20 47 32 37 44 17 43-7 30-18 16-22 8-19l2-7q0-2 1-2l11 11q60 64 141 64 17 0 31-2t26-7 19-10 15-12 10-13 8-13 4-12 3-9 2-7l8 10q63 75 149 75 54 0 87-27t34-79q0-51-38-158T704 50q1-14 5-19t15-5q28 0 52 30t39 82q3 11 6 13t16 2q20 0 20-8 0-1-4-15-8-29-22-57t-46-56-69-27q-47 0-68 27t-21 56q0 19 36 120t37 152q0 59-44 59h-5q-86 0-145-101l-7-12-33-134Q433 26 428 16q-13-27-43-27-13 0-21 7T353 8t-3 10q0 11 34 143l36 146q3 15 3 38 0 59-44 59h-5q-86 0-145-101l-7-12-33-134Q156 26 151 16q-13-27-43-27-13 0-21 6T76 7t-2 10q0 13 38 164 39 154 39 161 3 15 3 27 0 36-25 36-22 0-37-28t-23-61-12-36q-2-2-16-2H27q-6 6-6 9Z"/>
    <path id="l" d="M39 168q0 57 19 104t49 78 67 52 70 31 63 9h3q45 0 78-22t33-65q0-90-111-118-49-13-134-14-37 0-38-2 0-2-6-35t-7-58q0-47 21-74t63-28 93 19 92 66q9 10 12 10 4 0 13-9t10-14-9-16-30-27-46-31-63-25-76-10q-79 0-122 53T39 168Zm334 185q-6 52-68 52-33 0-61-14t-45-34-29-41-16-36-5-19q0-1 20-1 113 0 158 24t46 69Z"/>
    <path id="m" d="M78 250q0 24 17 42t43 18q24 0 42-16t19-43q0-25-17-43t-43-18-43 17-18 43Z"/>
    <path id="n" d="M21 287q1 3 2 8t5 22 10 31 15 33 20 30 26 22 33 9q29 0 51-12t31-22 11-20q2-6 3-6t8 7q48 52 111 52h3q48 0 72-41 8-19 8-37 0-30-13-48t-26-23-25-4q-20 0-32 11t-12 29q0 48 56 64-22 13-36 13-56 0-103-74-10-16-15-33t-34-133Q156 25 151 16q-13-27-43-27-13 0-21 6T76 7t-2 10q0 13 40 172t40 177q0 39-26 39-21 0-36-28t-24-61-11-36q-2-2-16-2H27q-6 6-6 9Z"/>
    <path id="o" d="M184 600q0 24 19 42t44 19q18 0 30-12t13-30q0-23-20-42t-44-20q-15 0-28 10t-14 33ZM21 287q0 8 9 31t24 51 44 51 60 22q39 0 65-23t27-62q0-17-14-56t-40-105-42-113q-5-22-5-32 0-25 17-25 9 0 19 3t23 14 27 35 25 59q3 12 5 14t17 2q20 0 20-10 0-8-9-31t-25-51-45-50-62-22q-32 0-59 21T74 74q0 17 5 32t43 114q38 101 44 121t7 39q0 24-17 24h-2q-30 0-55-33t-38-84q-1-1-2-3t-1-3-2-2-3-1-4 0-8 0H27q-6 6-6 9Z"/>
    <path id="p" d="M34 159q0 109 86 196t186 87q56 0 88-24t33-63q0-29-19-49t-48-21q-19 0-30 10t-11 30 11 34 22 21 14 6h1q0 2-6 6t-21 8-34 4q-30 0-57-14-21-9-43-31-44-44-64-124t-21-116q0-46 26-69 22-24 58-24h4q112 0 185 85 9 10 12 10 4 0 13-9t10-14-9-15-29-28-45-30-64-25-80-11q-75 0-121 48T34 159Z"/>
    <path id="q" d="m60 749 4 1h22l28-24q94-85 137-212t43-264q0-68-10-131T261 12t-37-88-38-67-41-51-32-33-23-19l-4-4H63q-3 0-5 3t-3 9q1 1 11 13Q221-64 221 250T66 725q-10 12-11 13 0 8 5 11Z"/>
  </defs>
  <g data-mml-node="math">
    <use xlink:href="#a" data-mml-node="mi" transform="scale(1 -1)"/>
    <use xlink:href="#b" data-mml-node="mi" transform="matrix(1 0 0 -1 769 0)"/>
    <use xlink:href="#c" data-mml-node="mi" transform="matrix(1 0 0 -1 1817 0)"/>
    <use xlink:href="#d" data-mml-node="mi" transform="matrix(1 0 0 -1 2567 0)"/>
    <use xlink:href="#e" data-mml-node="mo" transform="matrix(1 0 0 -1 3595.8 0)"/>
    <g data-mml-node="mfrac">
      <g data-mml-node="mrow">
        <use xlink:href="#f" data-mml-node="mo" transform="matrix(1 0 0 -1 4871.6 -710)"/>
        <use xlink:href="#g" data-mml-node="mo" transform="matrix(1 0 0 -1 5927.6 -710)"/>
        <use xlink:href="#a" data-mml-node="mi" transform="matrix(1 0 0 -1 6316.6 -710)"/>
        <use xlink:href="#h" data-mml-node="mi" transform="matrix(1 0 0 -1 7085.6 -710)"/>
        <use xlink:href="#i" data-mml-node="mi" transform="matrix(1 0 0 -1 7570.6 -710)"/>
        <use xlink:href="#j" data-mml-node="mi" transform="matrix(1 0 0 -1 7868.6 -710)"/>
        <use xlink:href="#k" data-mml-node="mi" transform="matrix(1 0 0 -1 8440.6 -710)"/>
        <use xlink:href="#l" data-mml-node="mi" transform="matrix(1 0 0 -1 9318.6 -710)"/>
        <use xlink:href="#m" data-mml-node="mo" transform="matrix(1 0 0 -1 10006.8 -710)"/>
        <use xlink:href="#d" data-mml-node="mi" transform="matrix(1 0 0 -1 10507 -710)"/>
        <use xlink:href="#n" data-mml-node="mi" transform="matrix(1 0 0 -1 11258 -710)"/>
        <use xlink:href="#o" data-mml-node="mi" transform="matrix(1 0 0 -1 11709 -710)"/>
        <use xlink:href="#p" data-mml-node="mi" transform="matrix(1 0 0 -1 12054 -710)"/>
        <use xlink:href="#l" data-mml-node="mi" transform="matrix(1 0 0 -1 12487 -710)"/>
        <use xlink:href="#q" data-mml-node="mo" transform="matrix(1 0 0 -1 12953 -710)"/>
      </g>
      <g data-mml-node="mrow">
        <use xlink:href="#f" data-mml-node="mo" transform="matrix(1 0 0 -1 6761.5 710)"/>
        <use xlink:href="#a" data-mml-node="mi" transform="matrix(1 0 0 -1 7984.2 710)"/>
        <use xlink:href="#h" data-mml-node="mi" transform="matrix(1 0 0 -1 8753.2 710)"/>
        <use xlink:href="#i" data-mml-node="mi" transform="matrix(1 0 0 -1 9238.2 710)"/>
        <use xlink:href="#j" data-mml-node="mi" transform="matrix(1 0 0 -1 9536.2 710)"/>
        <use xlink:href="#k" data-mml-node="mi" transform="matrix(1 0 0 -1 10108.2 710)"/>
        <use xlink:href="#l" data-mml-node="mi" transform="matrix(1 0 0 -1 10986.2 710)"/>
      </g>
      <path stroke="none" d="M4771.6-220H13442v-60H4771.6z"/>
    </g>
  </g>
</svg>
